<svg width="5379" height="4008" viewBox="0 0 5379 4008" fill="none" xmlns="http://www.w3.org/2000/svg">
<path d="M4725.5 1058.64C4728.41 1041.34 4727.49 1023.61 4722.8 1006.7C4718.12 989.795 4709.78 974.122 4698.37 960.79C4686.97 947.457 4672.78 936.79 4656.8 929.54C4640.82 922.289 4623.45 918.634 4605.91 918.83C4599.31 918.854 4592.73 919.429 4586.23 920.55C4572.33 897.354 4551.94 878.736 4527.59 866.996C4503.23 855.255 4475.96 850.907 4449.16 854.487C4422.36 858.068 4397.19 869.42 4376.77 887.143C4356.35 904.866 4341.56 928.182 4334.24 954.213C4325.6 951.569 4316.61 950.227 4307.57 950.233C4283.73 950.233 4260.86 959.706 4244 976.567C4227.14 993.428 4217.66 1016.3 4217.66 1040.14C4217.69 1046.51 4218.37 1052.85 4219.71 1059.07L4725.5 1058.64Z" fill="#F0F0F0"/>
<path d="M1560.3 579.951C1562.08 569.287 1563.02 558.498 1563.09 547.687C1563.09 492.38 1541.12 439.339 1502.02 400.232C1462.91 361.124 1409.87 339.154 1354.56 339.154C1343.24 339.23 1331.95 340.237 1320.79 342.165C1296.94 302.317 1261.94 270.325 1220.11 250.139C1178.29 229.953 1131.47 222.457 1085.43 228.577C1039.39 234.696 996.158 254.162 961.057 284.573C925.957 314.983 900.531 355.007 887.916 399.703C862.122 391.619 834.657 390.451 808.27 396.318C781.883 402.184 757.499 414.878 737.56 433.13C717.621 451.381 702.825 474.55 694.653 500.316C686.482 526.083 685.222 553.544 690.999 579.951H1560.3Z" fill="#F0F0F0"/>
<path d="M5378.2 3521.78H0.872559V3524.47H5378.2V3521.78Z" fill="#EBEBEB"/>
<path d="M4839.39 3694.82H4483.2V3697.51H4839.39V3694.82Z" fill="#EBEBEB"/>
<path d="M3563.03 3724.07H3469.57V3726.76H3563.03V3724.07Z" fill="#EBEBEB"/>
<path d="M4472.44 3595.02H4266.06V3597.71H4472.44V3595.02Z" fill="#EBEBEB"/>
<path d="M1029.56 3613.09H565.062V3615.77H1029.56V3613.09Z" fill="#EBEBEB"/>
<path d="M1193.46 3613.09H1125.38V3615.77H1193.46V3613.09Z" fill="#EBEBEB"/>
<path d="M2422.28 3658.47H1414.79V3661.16H2422.28V3658.47Z" fill="#EBEBEB"/>
<path d="M2549.73 3042.12H473.109C456.841 3042.09 441.249 3035.61 429.756 3024.1C418.263 3012.58 411.808 2996.98 411.808 2980.71V61.5763C411.949 45.4016 418.467 29.9359 429.945 18.5385C441.423 7.14117 456.934 0.732664 473.109 0.704956H2549.73C2566.01 0.704956 2581.63 7.17482 2593.15 18.6913C2604.66 30.2077 2611.13 45.8273 2611.13 62.114V2980.71C2611.13 2997 2604.66 3012.62 2593.15 3024.13C2581.63 3035.65 2566.01 3042.12 2549.73 3042.12V3042.12ZM473.109 2.85589C457.554 2.88438 442.646 9.08353 431.657 20.0927C420.668 31.1018 414.496 46.0213 414.496 61.5763V2980.71C414.496 2996.27 420.668 3011.19 431.657 3022.2C442.646 3033.2 457.554 3039.4 473.109 3039.43H2549.73C2565.29 3039.4 2580.21 3033.21 2591.22 3022.2C2602.22 3011.2 2608.42 2996.28 2608.45 2980.71V61.5763C2608.42 46.0114 2602.22 31.0921 2591.22 20.0861C2580.21 9.08004 2565.29 2.88432 2549.73 2.85589H473.109Z" fill="#EBEBEB"/>
<path d="M4876.06 3042.12H2799.34C2783.06 3042.09 2767.46 3035.61 2755.95 3024.1C2744.44 3012.59 2737.96 2996.99 2737.93 2980.71V61.5763C2738.1 45.3918 2744.64 29.9262 2756.14 18.5318C2767.63 7.13741 2783.16 0.732362 2799.34 0.704956H4876.06C4892.22 0.760929 4907.7 7.18194 4919.16 18.5763C4930.61 29.9706 4937.12 45.4201 4937.26 61.5763V2980.71C4937.26 2996.96 4930.82 3012.55 4919.35 3024.06C4907.88 3035.57 4892.31 3042.06 4876.06 3042.12V3042.12ZM2799.34 2.85589C2783.78 2.88432 2768.86 9.08004 2757.85 20.0861C2746.84 31.0921 2740.65 46.0114 2740.62 61.5763V2980.71C2740.65 2996.28 2746.84 3011.2 2757.85 3022.2C2768.86 3033.21 2783.78 3039.4 2799.34 3039.43H4876.06C4891.63 3039.4 4906.55 3033.21 4917.55 3022.2C4928.56 3011.2 4934.76 2996.28 4934.78 2980.71V61.5763C4934.76 46.0114 4928.56 31.0921 4917.55 20.0861C4906.55 9.08004 4891.63 2.88432 4876.06 2.85589H2799.34Z" fill="#EBEBEB"/>
<path d="M408.582 3210.54V2495.57H752.946V2300.05H917.814V1725.43L1130.76 1512.49H1563.09V2128.19H2156.21V2249.83H2575.54V2090.01H3026.05V1969.56H3377.83V1256.31H4000.64V1710.8H4144V1875.46H4477.28V2145.51H4655.38L4792.39 2282.52V2421.9H4928.87V3210.54H408.582Z" fill="#F0F0F0"/>
<path d="M828.013 2495.57H758.861L752.946 2491.48V2495.57H408.582V3210.54H828.013V2495.57Z" fill="#E6E6E6"/>
<path d="M2581.56 2142.06V2249.83H2564.57L2546.5 2365.12L2597.58 3210.54H3165.75V2090.01H3032.07H2589.63L2581.56 2142.06Z" fill="#E6E6E6"/>
<path d="M3904.27 1875.46V3210.54H4934.79V2421.9H4798.31V2282.52L4661.29 2145.51H4483.2V1875.46H4180.67H4149.91H3904.27Z" fill="#E6E6E6"/>
<path d="M4661.94 2217.99H4599.67V2280.26H4661.94V2217.99Z" fill="white"/>
<path d="M4551.92 2217.99H4489.65V2280.26H4551.92V2217.99Z" fill="white"/>
<path d="M4661.94 2334.03H4599.67V2396.3H4661.94V2334.03Z" fill="white"/>
<path d="M4551.92 2334.03H4489.65V2396.3H4551.92V2334.03Z" fill="white"/>
<path d="M4321.88 1925.68H4259.61V1987.95H4321.88V1925.68Z" fill="white"/>
<path d="M4211.86 1925.68H4149.59V1987.95H4211.86V1925.68Z" fill="white"/>
<path d="M755.742 2596.34H693.472V2658.61H755.742V2596.34Z" fill="white"/>
<path d="M645.722 2596.34H583.452V2658.61H645.722V2596.34Z" fill="white"/>
<path d="M3094.02 2335.32V2273.06H3031.75V2335.32H3094.02Z" fill="white"/>
<path d="M3094.02 2225.3V2163.04H3031.75V2225.3H3094.02Z" fill="white"/>
<path d="M2668.67 4007.46C3820.31 4007.46 4753.89 3952.95 4753.89 3885.72C4753.89 3818.48 3820.31 3763.97 2668.67 3763.97C1517.04 3763.97 583.452 3818.48 583.452 3885.72C583.452 3952.95 1517.04 4007.46 2668.67 4007.46Z" fill="#F5F5F5"/>
<path d="M4770.88 3355.51H4183.36V3841.41H4770.88V3355.51Z" fill="#42781C"/>
<path opacity="0.3" d="M4770.88 3355.51H4183.36V3841.41H4770.88V3355.51Z" fill="white"/>
<path d="M4328.22 3355.51H3872.87V3841.41H4328.22V3355.51Z" fill="#42781C"/>
<path opacity="0.1" d="M4328.22 3355.51H3872.87V3841.41H4328.22V3355.51Z" fill="white"/>
<path opacity="0.3" d="M4164.97 3355.51H4036.13V3506.72H4164.97V3355.51Z" fill="white"/>
<path opacity="0.1" d="M4645.7 3355.51H4516.86V3506.72H4645.7V3355.51Z" fill="black"/>
<path d="M4523.85 3641.48H4506.86C4506.59 3636.53 4506.59 3631.58 4506.86 3626.64C4506.86 3618.89 4512.77 3603.94 4523.53 3610.72C4526.86 3612.76 4530.73 3608.03 4527.4 3605.99C4524.99 3604.54 4522.25 3603.71 4519.44 3603.57C4516.63 3603.44 4513.84 3604.01 4511.3 3605.22C4508.76 3606.44 4506.56 3608.26 4504.91 3610.54C4503.25 3612.81 4502.18 3615.46 4501.8 3618.25C4500.37 3625.83 4500.01 3633.58 4500.73 3641.26H4490.94C4487.07 3641.26 4485.99 3647.18 4489.97 3647.29H4500.73C4500.73 3656.75 4500.73 3666.21 4500.73 3675.68C4500.73 3679.66 4506.86 3678.9 4506.86 3675.03C4506.86 3665.78 4506.86 3656.64 4506.86 3647.39H4522.77C4526.75 3647.61 4527.83 3641.59 4523.85 3641.48Z" fill="white"/>
<path d="M4552.03 3628.14C4551.6 3628.04 4551.16 3628.04 4550.74 3628.14C4522.88 3626.1 4527.29 3671.7 4553.96 3671.16C4559.66 3670.34 4564.85 3667.43 4568.53 3663C4572.21 3658.57 4574.1 3652.93 4573.86 3647.18C4573.95 3644.41 4573.42 3641.65 4572.31 3639.11C4571.2 3636.57 4569.54 3634.31 4567.45 3632.49C4565.36 3630.67 4562.9 3629.33 4560.23 3628.58C4557.56 3627.83 4554.76 3627.68 4552.03 3628.14V3628.14ZM4556.22 3664.6C4536.11 3669.87 4529.66 3632.34 4550.31 3634.6C4550.94 3634.77 4551.61 3634.77 4552.24 3634.6V3634.6C4571.6 3631.69 4571.6 3660.51 4556.22 3664.6Z" fill="white"/>
<path d="M4618.49 3639.43C4610.21 3612.55 4568.48 3634.59 4580.42 3659.12C4583.47 3663.92 4588.16 3667.46 4593.62 3669.06C4599.08 3670.66 4604.94 3670.23 4610.1 3667.83C4612.69 3666.83 4615.02 3665.27 4616.93 3663.26C4618.84 3661.25 4620.28 3658.84 4621.15 3656.2C4622.01 3653.57 4622.28 3650.77 4621.93 3648.02C4621.58 3645.27 4620.63 3642.63 4619.14 3640.29L4618.49 3639.43ZM4585.26 3654.81C4579.56 3638.47 4606.77 3622.55 4612.79 3641.91C4612.86 3642.25 4613 3642.57 4613.2 3642.85C4613.41 3643.12 4613.67 3643.35 4613.97 3643.52C4624.51 3662.34 4591.07 3671.81 4585.26 3654.81V3654.81Z" fill="white"/>
<path d="M4665.17 3669.12C4663.34 3644.38 4661.62 3619.65 4659.79 3595.02C4659.79 3591.04 4653.44 3591.79 4653.66 3595.66L4655.92 3626.85C4652.65 3625.79 4649.19 3625.5 4645.8 3625.99C4642.41 3626.47 4639.17 3627.73 4636.33 3629.66C4633.5 3631.59 4631.15 3634.14 4629.45 3637.12C4627.76 3640.1 4626.77 3643.43 4626.56 3646.85C4625.7 3663.52 4645.05 3669.22 4658.82 3667.4V3669.76C4659.36 3673.63 4665.49 3672.99 4665.17 3669.12ZM4632.9 3649.54C4632.72 3646.86 4633.21 3644.16 4634.3 3641.7C4635.4 3639.24 4637.08 3637.09 4639.2 3635.43C4641.32 3633.76 4643.81 3632.64 4646.46 3632.16C4649.11 3631.68 4651.84 3631.85 4654.41 3632.66C4655.01 3632.82 4655.64 3632.82 4656.24 3632.66C4656.99 3642.12 4657.64 3651.59 4658.39 3661.16C4649.03 3662.45 4634.3 3660.51 4632.69 3649.54H4632.9Z" fill="white"/>
<path d="M2689.21 436.376H1237.87C1148.78 436.376 1076.55 508.601 1076.55 597.696V3625.56C1076.55 3714.66 1148.78 3786.88 1237.87 3786.88H2689.21C2778.31 3786.88 2850.53 3714.66 2850.53 3625.56V597.696C2850.53 508.601 2778.31 436.376 2689.21 436.376Z" fill="#263238"/>
<path d="M2735.89 659.75H1191.31V3354.44H2735.89V659.75Z" fill="#42781C"/>
<path opacity="0.3" d="M2735.89 3087.29H1191.31V3354.33H2735.89V3087.29Z" fill="white"/>
<path opacity="0.1" d="M2735.89 1768.55C2343.24 2159.06 1616.11 2889.51 1191.31 3317.23V3354.87H2054.37L2735.89 2673.45V1768.55Z" fill="white"/>
<path opacity="0.1" d="M1191.31 2014.84L2546.39 659.75H1912.73C1744.95 826.232 1458.34 1113.38 1191.31 1381.39V2014.84Z" fill="white"/>
<path opacity="0.1" d="M1191.31 2581.28L2735.89 1036.7V706.21L1191.31 2250.69V2581.28Z" fill="white"/>
<path opacity="0.2" d="M2735.89 659.75H1191.31V781.278H2735.89V659.75Z" fill="black"/>
<path d="M1980.63 3643.21C2038.03 3633.89 2077.01 3579.81 2067.69 3522.41C2058.37 3465.01 2004.29 3426.03 1946.89 3435.35C1889.49 3444.67 1850.52 3498.75 1859.83 3556.15C1869.15 3613.55 1923.23 3652.52 1980.63 3643.21Z" fill="#42781C"/>
<g opacity="0.6">
<path opacity="0.6" d="M1358.33 748.368H1381.66V717.18H1358.33V748.368Z" fill="white"/>
<path opacity="0.6" d="M1320.25 748.368H1343.59V706.855H1320.25V748.368Z" fill="white"/>
<path opacity="0.6" d="M1282.18 748.368H1305.52V696.423H1282.18V748.368Z" fill="white"/>
<path opacity="0.6" d="M1244.11 748.368H1267.45V685.991H1244.11V748.368Z" fill="white"/>
</g>
<path opacity="0.6" d="M2571.99 705.78H2558.11V736.969H2571.99V705.78Z" fill="white"/>
<path opacity="0.6" d="M2581.56 748.368H2692.01V694.488H2581.56V748.368Z" fill="white"/>
<path opacity="0.4" d="M2040.49 2269.94C2005.11 2237.67 1963.6 2280.69 1963.6 2280.69C1963.6 2280.69 1922.19 2237.67 1886.7 2269.4C1836.15 2314.68 1909.61 2395.66 1963.6 2411.9C2017.59 2396.09 2091.04 2315.11 2040.49 2269.94Z" fill="white"/>
<path d="M2405.94 2495.78H1521.26C1494.5 2495.78 1468.84 2506.41 1449.93 2525.33C1431.01 2544.25 1420.38 2569.91 1420.38 2596.66C1420.38 2623.42 1431.01 2649.08 1449.93 2668C1468.84 2686.91 1494.5 2697.54 1521.26 2697.54H2405.94C2432.69 2697.54 2458.35 2686.91 2477.27 2668C2496.19 2649.08 2506.81 2623.42 2506.81 2596.66C2506.81 2569.91 2496.19 2544.25 2477.27 2525.33C2458.35 2506.41 2432.69 2495.78 2405.94 2495.78V2495.78Z" fill="white"/>
<path opacity="0.3" d="M2850.64 1392.25L2526.6 1438.39L2611.24 2040.43L2850.64 2016.13V1392.25Z" fill="#263238"/>
<path opacity="0.7" d="M1978.55 2145.4C2307.96 2145.4 2575 1878.36 2575 1548.94C2575 1219.53 2307.96 952.492 1978.55 952.492C1649.13 952.492 1382.09 1219.53 1382.09 1548.94C1382.09 1878.36 1649.13 2145.4 1978.55 2145.4Z" fill="white"/>
<path d="M2192.46 1184.25C2192.46 1184.25 2314.31 1364.5 2382.71 1371.82C2451.11 1379.13 2718.68 1148.98 2718.68 1148.98L2764.07 1188.23C2764.07 1188.23 2509.5 1467.85 2403.25 1484.2C2296.99 1500.55 2095.02 1289.97 2095.02 1289.97L2192.46 1184.25Z" fill="#E4897B"/>
<path d="M2163.42 1197.7C2163.42 1197.7 2206.44 1155.54 2265.59 1228.78C2324.74 1302.02 2349.04 1316.97 2349.04 1316.97L2198.48 1463.98C2198.48 1463.98 2109.97 1236.84 2163.42 1197.7Z" fill="#42781C"/>
<path d="M2697.49 1132.31C2697.49 1132.31 2702.76 1064.66 2718.47 1060.36C2734.17 1056.06 2728.58 1106.07 2728.58 1106.07C2728.58 1106.07 2811.39 1055.52 2828.06 1060.04C2844.73 1064.56 2842.04 1097.25 2838.81 1106.07C2813.54 1181.35 2723.2 1212.54 2723.2 1212.54L2686.74 1178.12L2697.49 1132.31Z" fill="#E4897B"/>
<path d="M2076.52 1005.3C2076.52 1005.3 2159.65 1143.82 2134.17 1231.14C2108.68 1318.47 1977.58 1239.96 1977.58 1239.96L1979.19 1067.89L2076.52 1005.3Z" fill="#263238"/>
<path d="M1853.58 766.544C1853.58 766.544 1730.65 828.813 1778.94 1047.89C1859.81 1415.16 1979.19 1262.98 1979.19 1262.98C1979.19 1262.98 1973.92 1118.22 1925.42 1047.89C1876.91 977.55 1887.02 877.209 1887.02 877.209L1853.58 766.544Z" fill="#263238"/>
<path d="M2210.09 1736.83L1841.53 1769.09C1837.96 1677.74 1824.8 1587.01 1802.28 1498.4C1793.46 1463.12 1782.49 1423.65 1768.29 1378.16C1760.66 1353.75 1752.27 1327.61 1742.91 1299.54C1735.92 1278.04 1728.28 1255.56 1719.9 1231.57C1769.96 1215.57 1821.1 1203.17 1872.93 1194.47C1927.58 1184.69 1982.86 1178.86 2038.34 1177.05C2110.07 1176.4 2192.46 1184.47 2192.46 1184.47C2192.46 1184.47 2204.18 1187.27 2211.6 1263.3C2218.27 1334.28 2224.83 1477.21 2210.09 1736.83Z" fill="#42781C"/>
<path opacity="0.2" d="M2210.09 1736.83L1841.53 1769.09C1837.96 1677.74 1824.8 1587.01 1802.28 1498.4C1793.46 1463.12 1782.49 1423.65 1768.29 1378.16C1760.66 1353.75 1752.27 1327.61 1742.91 1299.54C1735.92 1278.04 1728.28 1255.56 1719.9 1231.57C1769.96 1215.57 1821.1 1203.17 1872.93 1194.47C1927.58 1184.69 1982.86 1178.86 2038.34 1177.05C2110.07 1176.4 2192.46 1184.47 2192.46 1184.47C2192.46 1184.47 2204.18 1187.27 2211.6 1263.3C2218.27 1334.28 2224.83 1477.21 2210.09 1736.83Z" fill="white"/>
<path opacity="0.2" d="M1839.92 1741.02C1898.96 1718.01 2093.62 1622.72 2093.62 1622.72L1835.51 1681.01C1836.69 1700.59 1838.31 1720.37 1839.92 1741.02Z" fill="black"/>
<path d="M2008.01 1258.14C1917.14 1246.52 1889.71 1207.81 1889.71 1207.81C1947.36 1153.39 1899.5 1059.18 1899.5 1059.18L2008.77 1079.61C2006.27 1094.83 2004.86 1110.22 2004.57 1125.64C2003.71 1192 2033.72 1192.64 2033.72 1192.64C2052.97 1228.56 2008.01 1258.14 2008.01 1258.14Z" fill="#E4897B"/>
<path opacity="0.2" d="M2008.87 1079.61C2006.37 1094.83 2004.97 1110.22 2004.68 1125.64C1930.8 1125.64 1899.61 1059.18 1899.61 1059.18L2008.87 1079.61Z" fill="black"/>
<path d="M1959.83 773.534C2054.9 768.265 2076.41 813.864 2088.89 911.409C2104.38 1033.37 2082.44 1125.75 1962.2 1106.18C1830.24 1084.67 1793.24 875.704 1872.61 795.796C1891.22 776.868 1929.61 775.04 1959.83 773.534Z" fill="#E4897B"/>
<path d="M2027.48 923.777C2035.85 937.547 2045.85 950.258 2057.27 961.634C2054.72 965.719 2051.09 969.018 2046.78 971.163C2042.47 973.309 2037.65 974.217 2032.86 973.786L2027.48 923.777Z" fill="#DE5753"/>
<path d="M1969.94 912.807C1973.96 910.774 1977.2 907.49 1979.19 903.451L1962.74 911.409C1960.34 912.804 1958.43 914.908 1957.28 917.43C1956.12 919.953 1955.77 922.771 1956.28 925.498C1956.82 933.349 1961.55 939.264 1967.04 938.941C1972.52 938.618 1975.96 931.843 1975.43 924.1C1975.16 919.759 1973.19 915.699 1969.94 912.807V912.807Z" fill="#263238"/>
<path d="M2062.22 904.096C2066.23 902.062 2069.48 898.779 2071.47 894.739L2055.12 902.698C2052.71 904.119 2050.8 906.238 2049.63 908.774C2048.46 911.309 2048.08 914.141 2048.56 916.894C2049.2 924.745 2053.94 930.66 2059.31 930.229C2064.69 929.799 2068.24 923.239 2067.59 915.388C2067.53 913.237 2067.01 911.123 2066.09 909.179C2065.16 907.236 2063.84 905.505 2062.22 904.096V904.096Z" fill="#263238"/>
<path d="M1969.83 868.928C1962.27 868.446 1954.7 869.696 1947.69 872.585C1940.68 875.474 1934.42 879.925 1929.4 885.598" stroke="#263238" stroke-width="0.707336" stroke-linecap="round" stroke-linejoin="round"/>
<path d="M2027.59 865.057C2033.44 861.757 2039.96 859.821 2046.66 859.393C2053.37 858.965 2060.08 860.055 2066.3 862.583" stroke="#263238" stroke-width="0.707336" stroke-linecap="round" stroke-linejoin="round"/>
<path d="M1805.61 1217.81C1805.61 1217.81 1912.3 1304.38 2011.56 1302.99C2110.83 1301.59 2145.78 1189.95 2145.78 1189.95C2145.78 1189.95 1991.77 1144.35 1805.61 1217.81Z" fill="#E4897B"/>
<path d="M1648.7 1433.98C1648.7 1433.98 1615.15 1631.86 1619.13 1688.22C1623.1 1744.57 1708.28 1746.29 1756.25 1740.59C1811.42 1734.03 2099.11 1620.25 2099.11 1620.25L2085.77 1563.36C2085.77 1563.36 1860.57 1624.66 1764.64 1635.41C1760.15 1635.87 1755.63 1635.3 1751.4 1633.74C1747.17 1632.18 1743.35 1629.68 1740.24 1626.42C1737.13 1623.16 1734.8 1619.24 1733.44 1614.94C1732.07 1610.65 1731.71 1606.1 1732.37 1601.64L1754.63 1454.73L1648.7 1433.98Z" fill="#E4897B"/>
<path d="M1719.9 1231.15C1719.9 1231.15 1778.72 1218.13 1790.12 1311.59C1797.02 1368.19 1789.63 1425.61 1768.62 1478.61L1619.56 1451.72C1619.56 1451.72 1653.86 1235.98 1719.9 1231.15Z" fill="#42781C"/>
<path d="M2159.22 1506.36C2155.55 1504.12 2151.21 1503.25 2146.96 1503.88C2129.33 1508.4 2075.77 1561.42 2072.65 1568.41L2086.41 1618.64C2086.41 1618.64 2114.59 1633.69 2128.25 1629.39C2141.91 1625.09 2211.17 1574.11 2211.28 1561.85C2211.36 1561.17 2211.36 1560.49 2211.28 1559.81C2213.75 1557.98 2215.79 1556.47 2217.19 1555.61C2228.91 1548.3 2185.57 1515.93 2159.22 1506.36Z" fill="#E4897B"/>
<path d="M1954.24 773.857C1954.24 773.857 1966.39 893.018 1867.02 897.32C1767.65 901.622 1850.67 790.527 1850.67 790.527L1954.24 773.857Z" fill="#263238"/>
<path d="M1932.95 737.076C1769.58 742.238 1783.13 981.207 1871.43 1047.89C1871.43 1047.89 1828.41 990.025 1853.36 939.694C1853.36 939.694 1885.63 861.83 1874.87 801.927C1900.13 790.966 1926.94 784.035 1954.35 781.385C1972.74 803.755 2018.88 871.724 2079.32 870.326C2082.81 880.864 2085.5 891.649 2087.38 902.59C2087.38 902.59 2096.52 732.021 1932.95 737.076Z" fill="#263238"/>
<path d="M2052.22 1019.6C2042.97 1024.52 2032.7 1027.18 2022.23 1027.37C2011.76 1027.55 2001.4 1025.26 1991.99 1020.68C1991.73 1020.53 1991.49 1020.33 1991.31 1020.1C1991.12 1019.86 1990.98 1019.59 1990.9 1019.3C1990.82 1019.01 1990.8 1018.7 1990.84 1018.41C1990.88 1018.11 1990.98 1017.82 1991.13 1017.56C1991.25 1017.3 1991.43 1017.07 1991.65 1016.89C1991.86 1016.7 1992.12 1016.56 1992.39 1016.48C1992.66 1016.4 1992.95 1016.38 1993.23 1016.42C1993.52 1016.45 1993.79 1016.55 1994.03 1016.7V1016.7C2002.8 1020.89 2012.42 1022.97 2022.14 1022.76C2031.85 1022.56 2041.38 1020.08 2049.96 1015.51C2050.47 1015.24 2051.07 1015.18 2051.64 1015.34C2052.2 1015.5 2052.67 1015.87 2052.97 1016.37V1016.37C2053.24 1016.87 2053.3 1017.46 2053.14 1018C2052.97 1018.55 2052.61 1019.01 2052.11 1019.28L2052.22 1019.6Z" fill="#263238"/>
<path d="M1870.03 958.945C1868.51 947.996 1862.71 938.099 1853.89 931.425C1845.08 924.751 1833.98 921.845 1823.03 923.346C1793.78 928.079 1783.03 989.38 1857.13 999.92C1867.66 1001.43 1873.04 990.778 1870.03 958.945Z" fill="#E4897B"/>
<path d="M1858.95 1393.54L1957.9 1379.56C1957.9 1379.56 1990.16 1485.06 1931.44 1496.35C1867.24 1508.83 1858.95 1393.54 1858.95 1393.54Z" fill="#42781C"/>
<path d="M2231.71 1962.03C2226.76 1913.2 2219.02 1846.74 2209.13 1794.47L2210.09 1736.83L1841.53 1769.09L1838.2 1822.87C1829.59 1838.78 1791.95 1917.61 1774.96 2110.45C1851.61 2138.25 1933.14 2150.06 2014.52 2145.14C2095.91 2140.22 2175.43 2118.67 2248.17 2081.84L2231.71 1962.03Z" fill="#263238"/>
<path d="M3166.4 1784.04L2978.94 1831.58C2964.47 1822.62 2947.27 1819.11 2930.44 1821.68C2903.88 1826.63 2837.41 1880.94 2839.99 1888.9C2842.57 1896.86 2922.7 1933.75 2934.2 1930.74C2975.5 1919.98 3018.09 1871.91 3018.09 1871.91L3185.65 1837.38L3166.4 1784.04Z" fill="#E4897B"/>
<path d="M3635.95 1109.94C3597.87 1150.48 3497 1147.04 3497 1147.04C3497 1147.04 3463.76 1149.95 3455.48 1121.77C3491.94 1112.74 3497.53 1086.49 3503.23 1063.8C3506.04 1049.78 3506.04 1035.34 3503.23 1021.32C3502.06 1013.41 3500.41 1005.58 3498.29 997.876L3615.4 896.03C3604.54 957.869 3592.93 1069.07 3635.95 1109.94Z" fill="#E4897B"/>
<path opacity="0.2" d="M3591.96 956.794C3592.93 1032.08 3533.24 1057.24 3503.56 1063.8C3506.36 1049.78 3506.36 1035.34 3503.56 1021.32L3591.96 956.794Z" fill="black"/>
<path d="M3601.64 973.356C3590.25 993.507 3572.55 1009.36 3551.28 1018.47C3530 1027.58 3506.32 1029.45 3483.87 1023.8C3454.68 1017.1 3429.17 999.471 3412.57 974.539C3410.19 971.097 3408.03 967.505 3406.12 963.784C3370.09 895.17 3350.62 771.814 3422.03 719.331C3437.74 707.549 3456.21 700.001 3475.67 697.413C3495.13 694.824 3514.93 697.281 3533.17 704.548C3551.41 711.816 3567.47 723.649 3579.82 738.912C3592.17 754.175 3600.38 772.356 3603.68 791.71C3619.17 873.983 3632.29 921.626 3601.64 973.356Z" fill="#E4897B"/>
<path d="M3481.4 850.86C3482.54 853.367 3482.67 856.214 3481.77 858.815C3480.87 861.416 3479 863.573 3476.56 864.841C3472.26 865.917 3467.42 861.4 3465.81 854.84C3464.19 848.279 3466.34 841.934 3470.65 840.858C3474.95 839.783 3479.68 844.193 3481.4 850.86Z" fill="#263238"/>
<path d="M3408.81 866.132C3410.96 872.585 3408.27 879.038 3404.07 880.113C3399.88 881.189 3394.83 876.672 3393.32 870.111C3391.81 863.551 3393.86 857.206 3398.16 856.13C3402.46 855.055 3407.19 859.894 3408.81 866.132Z" fill="#263238"/>
<path d="M3434.94 868.175C3432.88 889.792 3427.77 911.009 3419.78 931.198C3430.53 935.499 3445.59 928.724 3455.81 923.132L3434.94 868.175Z" fill="#DE5753"/>
<path d="M3502.91 815.585C3502.23 815.851 3501.5 815.931 3500.78 815.818C3500.06 815.704 3499.39 815.401 3498.82 814.94C3494.97 811.71 3490.42 809.425 3485.52 808.267C3480.63 807.11 3475.54 807.111 3470.65 808.272C3470.14 808.493 3469.59 808.605 3469.04 808.602C3468.48 808.599 3467.94 808.48 3467.43 808.254C3466.93 808.027 3466.47 807.698 3466.1 807.286C3465.73 806.875 3465.45 806.391 3465.28 805.865C3465.11 805.339 3465.04 804.783 3465.1 804.232C3465.15 803.681 3465.32 803.147 3465.59 802.665C3465.87 802.183 3466.24 801.763 3466.68 801.432C3467.12 801.102 3467.63 800.867 3468.17 800.744C3474.31 799.18 3480.74 799.085 3486.92 800.468C3493.11 801.851 3498.88 804.672 3503.77 808.702C3504.19 809.019 3504.54 809.415 3504.8 809.868C3505.07 810.321 3505.24 810.822 3505.31 811.342C3505.38 811.861 3505.35 812.39 3505.21 812.897C3505.08 813.403 3504.84 813.878 3504.52 814.294V814.294C3504.06 814.811 3503.52 815.247 3502.91 815.585V815.585Z" fill="#263238"/>
<path d="M3471.18 955.718C3480.98 954.673 3490.38 951.321 3498.62 945.936C3506.87 940.552 3513.72 933.289 3518.61 924.744C3518.74 924.499 3518.81 924.229 3518.83 923.953C3518.85 923.677 3518.82 923.4 3518.73 923.139C3518.64 922.878 3518.49 922.637 3518.31 922.433C3518.12 922.228 3517.9 922.063 3517.64 921.948C3517.41 921.82 3517.16 921.74 3516.89 921.714C3516.63 921.688 3516.37 921.716 3516.11 921.796C3515.86 921.877 3515.63 922.009 3515.43 922.183C3515.23 922.357 3515.07 922.57 3514.96 922.809V922.809C3510.31 930.668 3503.9 937.336 3496.22 942.284C3488.55 947.231 3479.83 950.321 3470.75 951.308C3470.48 951.322 3470.2 951.391 3469.95 951.514C3469.7 951.636 3469.48 951.808 3469.3 952.02C3469.12 952.231 3468.98 952.478 3468.9 952.744C3468.82 953.01 3468.79 953.29 3468.82 953.567C3468.85 953.836 3468.92 954.097 3469.05 954.335C3469.18 954.573 3469.36 954.782 3469.57 954.953C3469.78 955.123 3470.02 955.249 3470.28 955.325C3470.54 955.401 3470.81 955.425 3471.08 955.395L3471.18 955.718Z" fill="#263238"/>
<path d="M3372.24 846.881C3371.61 847.401 3370.8 847.67 3369.98 847.634C3369.47 847.544 3368.98 847.352 3368.54 847.069C3368.11 846.785 3367.73 846.417 3367.44 845.985C3367.15 845.553 3366.95 845.067 3366.85 844.556C3366.75 844.045 3366.75 843.519 3366.86 843.01V843.01C3368.02 836.757 3370.66 830.87 3374.55 825.839C3378.44 820.808 3383.47 816.777 3389.23 814.08C3389.72 813.888 3390.24 813.795 3390.76 813.805C3391.29 813.815 3391.8 813.928 3392.28 814.138C3392.76 814.347 3393.2 814.65 3393.56 815.027C3393.92 815.405 3394.21 815.85 3394.4 816.338V816.338C3394.59 816.825 3394.68 817.345 3394.67 817.869C3394.66 818.392 3394.55 818.908 3394.34 819.388C3394.13 819.867 3393.83 820.301 3393.45 820.663C3393.07 821.026 3392.62 821.31 3392.14 821.5C3387.64 823.754 3383.73 827.029 3380.73 831.062C3377.72 835.096 3375.7 839.776 3374.82 844.73C3374.56 845.247 3374.2 845.705 3373.76 846.075C3373.31 846.446 3372.8 846.72 3372.24 846.881V846.881Z" fill="#263238"/>
<path d="M3655.73 849.247C3651.32 869.895 3638.96 887.976 3621.32 899.579C3597.77 914.635 3578.3 895.6 3577.44 869.143C3577.44 845.59 3589.05 808.594 3616.05 804.615C3643.04 800.636 3660.68 823.866 3655.73 849.247Z" fill="#E4897B"/>
<path d="M3285.34 1173.82C3245.05 1212.19 3215.4 1260.37 3199.31 1313.63C3179.09 1378.16 3160.16 1530.12 3150.91 1612.61C3148.97 1628.54 3141.95 1643.42 3130.89 1655.04C3119.83 1666.67 3105.31 1674.41 3089.5 1677.14L2863.01 1716.61L2881.08 1831.79L3168.01 1804.15C3198.72 1801.19 3227.65 1788.41 3250.51 1767.7C3273.38 1746.99 3288.95 1719.45 3294.91 1689.19C3312.44 1600.46 3335.89 1471.83 3346.54 1369.99C3364.6 1196.95 3345.57 1155.97 3285.34 1173.82Z" fill="#42781C"/>
<path opacity="0.1" d="M3285.34 1173.82C3245.05 1212.19 3215.4 1260.37 3199.31 1313.63C3179.09 1378.16 3160.16 1530.12 3150.91 1612.61C3148.97 1628.54 3141.95 1643.42 3130.89 1655.04C3119.83 1666.67 3105.31 1674.41 3089.5 1677.14L2863.01 1716.61L2881.08 1831.79L3168.01 1804.15C3198.72 1801.19 3227.65 1788.41 3250.51 1767.7C3273.38 1746.99 3288.95 1719.45 3294.91 1689.19C3312.44 1600.46 3335.89 1471.83 3346.54 1369.99C3364.6 1196.95 3345.57 1155.97 3285.34 1173.82Z" fill="black"/>
<path d="M3126.28 3733.65L3041.1 3712.67L3089.61 3530.17L3174.79 3551.14L3126.28 3733.65Z" fill="#E4897B"/>
<path d="M3041.97 3683.21L3138.76 3718.05C3140.34 3718.63 3141.68 3719.73 3142.54 3721.19C3143.41 3722.64 3143.74 3724.34 3143.49 3726.01L3133.7 3802.47C3133.25 3805.76 3131.51 3808.74 3128.87 3810.75C3126.23 3812.77 3122.91 3813.66 3119.61 3813.23C3118.69 3813.1 3117.78 3812.84 3116.93 3812.48C3085.84 3800.75 3063.8 3790.97 3024.54 3776.45C3000.34 3767.63 2926.46 3744.18 2893.12 3731.82C2859.78 3719.45 2867.31 3685.25 2882.37 3687.08C2948.51 3695.9 3001.31 3694.07 3027.23 3683.53C3031.93 3681.58 3037.19 3681.47 3041.97 3683.21V3683.21Z" fill="#2E353A"/>
<path d="M3010.56 3687.61C3004.99 3686.14 3000.12 3682.75 2996.8 3678.04C2995.8 3676.29 2995.27 3674.31 2995.27 3672.29C2995.27 3670.27 2995.8 3668.29 2996.8 3666.54C2997.17 3665.43 2997.85 3664.45 2998.77 3663.72C2999.69 3663 3000.79 3662.56 3001.96 3662.45C3012.71 3661.05 3032.39 3686.11 3034.22 3689.01C3034.47 3689.32 3034.6 3689.7 3034.6 3690.09C3034.6 3690.48 3034.47 3690.86 3034.22 3691.16C3034.06 3691.53 3033.79 3691.83 3033.44 3692.03C3033.09 3692.22 3032.68 3692.3 3032.29 3692.24C3024.9 3691.49 3017.61 3689.94 3010.56 3687.61V3687.61ZM3004.65 3666.86C3003.8 3666.64 3002.91 3666.64 3002.07 3666.86C3002.07 3666.86 3000.67 3666.86 3000.02 3668.58C2999.41 3669.78 2999.09 3671.1 2999.09 3672.45C2999.09 3673.8 2999.41 3675.12 3000.02 3676.32C3007.52 3683.55 3017.46 3687.7 3027.88 3687.94C3021.55 3679.5 3013.66 3672.34 3004.65 3666.86V3666.86Z" fill="#42781C"/>
<path d="M3031.96 3692.13H3031C3024.44 3684.71 3014.86 3661.48 3019.49 3653.74C3020.27 3652.44 3021.48 3651.44 3022.91 3650.93C3024.34 3650.42 3025.91 3650.43 3027.34 3650.94C3028.85 3651.25 3030.27 3651.89 3031.51 3652.79C3032.76 3653.7 3033.79 3654.87 3034.54 3656.21C3041 3666.97 3034.54 3690.63 3034.54 3691.81C3034.44 3692.15 3034.25 3692.45 3033.98 3692.68C3033.71 3692.91 3033.39 3693.05 3033.04 3693.1C3032.8 3693.03 3032.58 3692.9 3032.39 3692.74C3032.21 3692.57 3032.06 3692.36 3031.96 3692.13ZM3027.55 3654.17H3026.69C3024.22 3653.31 3023.57 3654.71 3023.25 3655.14C3020.35 3659.98 3025.73 3676.65 3031.64 3686C3034.55 3676.8 3034.55 3666.92 3031.64 3657.72C3031.24 3656.88 3030.67 3656.13 3029.97 3655.52C3029.26 3654.91 3028.44 3654.45 3027.55 3654.17V3654.17Z" fill="#42781C"/>
<path opacity="0.2" d="M3174.79 3551.14L3089.61 3530.17L3064.66 3624.38L3149.83 3645.24L3174.79 3551.14Z" fill="black"/>
<path d="M3690.26 3732.78L3603.14 3743.11L3584.32 3555.23L3671.44 3544.9L3690.26 3732.78Z" fill="#E4897B"/>
<path d="M3593.57 3715.25L3696.28 3713.86C3697.97 3713.86 3699.62 3714.44 3700.94 3715.49C3702.27 3716.54 3703.2 3718.01 3703.59 3719.66L3721.23 3794.95C3721.94 3798.18 3721.34 3801.57 3719.57 3804.37C3717.8 3807.16 3714.99 3809.15 3711.77 3809.9C3710.84 3810.01 3709.9 3810.01 3708.97 3809.9C3675.74 3809.9 3651.54 3808.07 3609.81 3808.6C3584.11 3808.6 3506.67 3812.58 3471.18 3813.12C3435.69 3813.66 3430.53 3778.49 3445.05 3775.16C3509.58 3760.1 3558.83 3739.77 3579.48 3720.74C3583.28 3717.14 3588.34 3715.17 3593.57 3715.25Z" fill="#2E353A"/>
<path d="M3565.83 3730.42C3560.07 3730.98 3554.29 3729.54 3549.48 3726.33C3547.89 3725.07 3546.66 3723.41 3545.91 3721.52C3545.15 3719.64 3544.9 3717.59 3545.18 3715.58C3545.12 3714.41 3545.4 3713.24 3545.99 3712.23C3546.58 3711.22 3547.46 3710.4 3548.51 3709.88C3557.87 3704.93 3585.4 3721.38 3588.41 3723.21C3588.76 3723.39 3589.04 3723.67 3589.21 3724.02C3589.39 3724.37 3589.44 3724.77 3589.38 3725.15C3589.34 3725.56 3589.18 3725.95 3588.91 3726.26C3588.64 3726.56 3588.27 3726.78 3587.87 3726.87C3580.69 3728.91 3573.29 3730.1 3565.83 3730.42ZM3553.03 3713.1C3552.13 3713 3551.23 3713.19 3550.45 3713.64C3549.91 3713.64 3549.26 3714.39 3549.16 3716.01C3549.01 3717.34 3549.19 3718.7 3549.67 3719.95C3550.16 3721.21 3550.94 3722.32 3551.95 3723.21C3561.49 3727.37 3572.25 3727.76 3582.06 3724.29C3573.2 3718.72 3563.34 3714.92 3553.03 3713.1V3713.1Z" fill="#42781C"/>
<path d="M3587.33 3727.19H3586.37C3577.65 3722.57 3560.55 3704.18 3562.17 3694.93C3562.42 3693.43 3563.2 3692.07 3564.36 3691.08C3565.52 3690.1 3566.99 3689.56 3568.51 3689.55C3570.02 3689.34 3571.56 3689.45 3573.03 3689.87C3574.49 3690.3 3575.85 3691.03 3577.01 3692.03C3586.9 3699.88 3589.27 3724.29 3589.38 3725.26C3589.39 3725.62 3589.31 3725.98 3589.14 3726.3C3588.97 3726.62 3588.72 3726.89 3588.41 3727.09L3587.33 3727.19ZM3569.91 3693.1H3568.94C3566.36 3693.1 3566.15 3694.61 3566.15 3695.14C3565.07 3700.63 3576.04 3714.61 3584.86 3721.06C3584.06 3711.38 3580.31 3702.19 3574.11 3694.71C3572.96 3693.66 3571.46 3693.09 3569.91 3693.1V3693.1Z" fill="#42781C"/>
<path opacity="0.2" d="M3671.44 3544.9L3584.32 3555.23L3594.11 3652.12L3681.22 3641.8L3671.44 3544.9Z" fill="black"/>
<path d="M3285.13 2015.7C3285.13 2015.7 3065.95 3087.29 3058.42 3498.76L3204.47 3564.04C3204.47 3564.04 3323.41 3099.12 3362.02 2837.89C3362.02 2837.89 3464.41 2630.43 3491.94 2461.48C3491.94 2461.48 3486.24 3203.55 3563.14 3595.13L3700.15 3584.37C3700.15 3584.37 3838.35 2192.29 3813.4 1969.45L3285.13 2015.7Z" fill="#42781C"/>
<path opacity="0.6" d="M3285.13 2015.7C3285.13 2015.7 3065.95 3087.29 3058.42 3498.76L3204.47 3564.04C3204.47 3564.04 3323.41 3099.12 3362.02 2837.89C3362.02 2837.89 3464.41 2630.43 3491.94 2461.48C3491.94 2461.48 3486.24 3203.55 3563.14 3595.13L3700.15 3584.37C3700.15 3584.37 3838.35 2192.29 3813.4 1969.45L3285.13 2015.7Z" fill="white"/>
<path opacity="0.2" d="M3468.17 2191C3468.17 2191 3451.93 2445.78 3475.06 2539.34C3482.05 2512.99 3487.85 2486.75 3491.94 2461.37L3468.17 2191Z" fill="black"/>
<path d="M3545.71 3626.21L3733.81 3598.24L3728 3546.19L3532.49 3571.79L3545.71 3626.21Z" fill="#42781C"/>
<path d="M3033.68 3538.88L3215.33 3594.8L3232.65 3545.44L3045.19 3484.03L3033.68 3538.88Z" fill="#42781C"/>
<path d="M3285.34 1173.82C3285.34 1173.82 3308.57 1127.9 3512.7 1116.07C3716.82 1104.24 3808.02 1134.46 3808.02 1134.46C3808.02 1134.46 3789.52 1566.58 3813.18 1969.56C3813.18 1969.56 3471.83 2091.19 3284.91 2015.7C3285.13 2015.7 3145.1 1493.77 3285.34 1173.82Z" fill="#42781C"/>
<path opacity="0.2" d="M3585.83 1113.49C3563.24 1113.49 3538.94 1114.56 3512.7 1116.07C3496.89 1117.04 3482.37 1118.11 3468.71 1119.4C3468.71 1119.4 3486.13 1152.42 3512.7 1152.42C3527.15 1152.46 3541.39 1148.93 3554.15 1142.14C3566.91 1135.35 3577.79 1125.51 3585.83 1113.49V1113.49Z" fill="black"/>
<path opacity="0.3" d="M3802.75 1674.99L3491.94 1832.11C3491.94 1832.11 3687.89 1838.14 3805.01 1774.58C3804.08 1740.95 3803.32 1707.76 3802.75 1674.99Z" fill="black"/>
<path opacity="0.1" d="M3508.72 1237.06L3619.17 1728.44L3594.65 1792L3508.72 1237.06Z" fill="black"/>
<path d="M3509.57 1250.81L2927.92 1338.94L3012.15 1894.82L3593.8 1806.69L3509.57 1250.81Z" fill="#42781C"/>
<path opacity="0.1" d="M3509.57 1250.81L2927.92 1338.94L3012.15 1894.82L3593.8 1806.69L3509.57 1250.81Z" fill="white"/>
<path d="M3071.25 1304.66L2621.26 1374.33L2707.16 1929.22L3157.15 1859.55L3071.25 1304.66Z" fill="#42781C"/>
<path opacity="0.3" d="M3071.25 1304.66L2621.26 1374.33L2707.16 1929.22L3157.15 1859.55L3071.25 1304.66Z" fill="white"/>
<path opacity="0.3" d="M2910 1329.56L2782.68 1349.27L2805.81 1498.7L2933.13 1478.99L2910 1329.56Z" fill="white"/>
<path opacity="0.1" d="M3385.09 1256.14L3257.77 1275.85L3280.9 1425.28L3408.22 1405.57L3385.09 1256.14Z" fill="black"/>
<path opacity="0.2" d="M3111.17 1748.66L2972.05 1770.2L2985.16 1854.91L3124.29 1833.37L3111.17 1748.66Z" fill="white"/>
<path opacity="0.2" d="M3328.47 1827.71L3314.17 1808.78L3268.03 1818.67C3265.57 1826.52 3264.62 1834.77 3265.23 1842.98L3329.76 1833.08L3328.47 1827.71Z" fill="#2E353A"/>
<path d="M3595.4 1716.93L3407.52 1762.75C3393.13 1753.53 3375.94 1749.71 3359.01 1751.99C3332.56 1756.72 3265.56 1810.39 3268.03 1818.35C3270.5 1826.31 3332.56 1874.92 3344.06 1871.37C3355.57 1867.82 3427.95 1816.63 3427.95 1816.63L3606.91 1801.68L3595.4 1716.93Z" fill="#E4897B"/>
<path d="M3796.08 1133.82C3796.08 1133.82 3717.14 1154.79 3728.33 1301.27C3733.27 1364.93 3735.75 1432.9 3737.04 1489.47C3737.82 1527.32 3727.82 1564.6 3708.21 1596.98C3688.59 1629.35 3660.17 1655.47 3626.27 1672.3L3472.04 1735.32L3491.94 1832.12C3491.94 1832.12 3716.07 1811.57 3794.9 1748.55C3873.73 1685.53 3901.15 1550.99 3888.36 1439.46C3870.5 1284.6 3876.42 1127.58 3796.08 1133.82Z" fill="#42781C"/>
<path opacity="0.1" d="M3796.08 1133.82C3796.08 1133.82 3717.14 1154.79 3728.33 1301.27C3733.27 1364.93 3735.75 1432.9 3737.04 1489.47C3737.82 1527.32 3727.82 1564.6 3708.21 1596.98C3688.59 1629.35 3660.17 1655.47 3626.27 1672.3L3472.04 1735.32L3491.94 1832.12C3491.94 1832.12 3716.07 1811.57 3794.9 1748.55C3873.73 1685.53 3901.15 1550.99 3888.36 1439.46C3870.5 1284.6 3876.42 1127.58 3796.08 1133.82Z" fill="black"/>
<path d="M3486.67 1710.8L3499.79 1845.45L3463.55 1848.89L3444.3 1722.85L3486.67 1710.8Z" fill="#42781C"/>
<path opacity="0.6" d="M3486.67 1710.8L3499.79 1845.45L3463.55 1848.89L3444.3 1722.85L3486.67 1710.8Z" fill="white"/>
<path opacity="0.4" d="M3676.22 1341.01L3551.21 1352.18L3553 1372.11L3678 1360.93L3676.22 1341.01Z" fill="white"/>
<path d="M3512.7 1116.07L3553.13 1169.84L3638.42 1113.6V1108.43C3638.62 1103.92 3637.75 1099.42 3635.88 1095.31C3634.01 1091.2 3631.2 1087.59 3627.66 1084.77C3623.59 1082.26 3618.96 1080.79 3614.18 1080.47C3609.4 1080.15 3604.62 1081 3600.24 1082.95L3512.7 1116.07Z" fill="#42781C"/>
<path d="M3455.8 1120.37L3465.81 1103.81C3478.39 1088.97 3488.39 1096.6 3488.39 1096.6L3512.7 1116.07L3477.21 1169.84L3455.8 1120.37Z" fill="#42781C"/>
<path opacity="0.6" d="M3512.7 1116.07L3553.13 1169.84L3638.42 1113.6V1108.43C3638.62 1103.92 3637.75 1099.42 3635.88 1095.31C3634.01 1091.2 3631.2 1087.59 3627.66 1084.77C3623.59 1082.26 3618.96 1080.79 3614.18 1080.47C3609.4 1080.15 3604.62 1081 3600.24 1082.95L3512.7 1116.07Z" fill="white"/>
<path opacity="0.6" d="M3455.8 1120.37L3465.81 1103.81C3478.39 1088.97 3488.39 1096.6 3488.39 1096.6L3512.7 1116.07L3477.21 1169.84L3455.8 1120.37Z" fill="white"/>
<path d="M3653.58 847.096C3659.28 810.315 3633.79 805.261 3617.02 809.67C3600.24 814.079 3582.06 840.751 3582.06 840.751C3565.72 814.294 3556.47 747.293 3556.47 747.293C3535.69 758.775 3512.53 765.277 3488.81 766.284C3465.09 767.292 3441.46 762.779 3419.78 753.1C3411.42 775.694 3395.8 794.873 3375.36 807.627C3375.36 807.627 3345.03 793.753 3361.92 724.063C3381.06 644.801 3500.11 568.12 3620.03 647.167C3739.94 726.214 3667.35 873.015 3667.35 873.015C3667.35 873.015 3640.14 921.088 3616.05 939.156C3618.09 924.889 3618.09 910.404 3616.05 896.137C3625.82 891.633 3634.35 884.812 3640.89 876.266C3647.43 867.72 3651.79 857.707 3653.58 847.096V847.096Z" fill="#2E353A"/>
<path d="M3405.58 733.419C3412.52 741.893 3420.55 749.414 3429.46 755.789C3438.53 762.259 3448.35 767.604 3458.71 771.706C3469.05 775.782 3479.91 778.423 3490.97 779.557C3502.3 780.632 3513.71 780.307 3524.96 778.589C3513.79 781.202 3502.34 782.43 3490.86 782.246C3479.23 782.033 3467.68 780.187 3456.56 776.761C3445.22 773.424 3434.38 768.615 3424.29 762.457C3414.05 756.323 3404.68 748.835 3396.44 740.195L3405.58 733.419Z" fill="#2E353A"/>
<path d="M4788.52 1341.16C4701.41 1263.3 4599.67 1368.91 4599.67 1368.91C4599.67 1368.91 4497.82 1263.3 4410.82 1341.16C4286.71 1452.26 4467.17 1651.22 4599.67 1691.01C4732.17 1651.22 4912.63 1452.58 4788.52 1341.16Z" fill="#42781C"/>
<path opacity="0.6" d="M4788.52 1341.16C4701.41 1263.3 4599.67 1368.91 4599.67 1368.91C4599.67 1368.91 4497.82 1263.3 4410.82 1341.16C4286.71 1452.26 4467.17 1651.22 4599.67 1691.01C4732.17 1651.22 4912.63 1452.58 4788.52 1341.16Z" fill="white"/>
<path d="M3030.14 305.492C2943.02 227.628 2841.28 333.239 2841.28 333.239C2841.28 333.239 2739.44 227.628 2652.43 305.492C2528.32 416.48 2708.79 615.441 2841.28 655.341C2973.78 615.441 3154.24 416.48 3030.14 305.492Z" fill="#42781C"/>
<path opacity="0.6" d="M3030.14 305.492C2943.02 227.628 2841.28 333.239 2841.28 333.239C2841.28 333.239 2739.44 227.628 2652.43 305.492C2528.32 416.48 2708.79 615.441 2841.28 655.341C2973.78 615.441 3154.24 416.48 3030.14 305.492Z" fill="white"/>
<path d="M4053.66 628.777C4018.06 596.513 3976.44 640.177 3976.44 640.177C3976.44 640.177 3934.92 597.158 3899.33 628.777C3848.56 674.161 3922.34 755.467 3976.44 771.814C4030.64 755.467 4104.31 674.161 4053.66 628.777Z" fill="#42781C"/>
<path opacity="0.6" d="M4053.66 628.777C4018.06 596.513 3976.44 640.177 3976.44 640.177C3976.44 640.177 3934.92 597.158 3899.33 628.777C3848.56 674.161 3922.34 755.467 3976.44 771.814C4030.64 755.467 4104.31 674.161 4053.66 628.777Z" fill="white"/>
<path d="M801.772 1483.34C766.174 1451.08 724.661 1494.74 724.661 1494.74C724.661 1494.74 683.04 1451.72 647.442 1483.34C596.788 1528.73 670.457 1610.03 724.661 1626.27C778.757 1610.03 852.533 1528.73 801.772 1483.34Z" fill="#42781C"/>
<path opacity="0.6" d="M801.772 1483.34C766.174 1451.08 724.661 1494.74 724.661 1494.74C724.661 1494.74 683.04 1451.72 647.442 1483.34C596.788 1528.73 670.457 1610.03 724.661 1626.27C778.757 1610.03 852.533 1528.73 801.772 1483.34Z" fill="white"/>
<path d="M3310.96 1567.01L3294.55 1571.41C3293.01 1566.7 3291.73 1561.92 3290.71 1557.07C3288.7 1549.59 3290.55 1533.62 3302.69 1537.38C3306.44 1538.5 3308.95 1532.92 3305.2 1531.81C3302.5 1531.03 3299.65 1530.94 3296.9 1531.54C3294.15 1532.14 3291.59 1533.41 3289.45 1535.24C3287.32 1537.07 3285.67 1539.4 3284.66 1542.03C3283.64 1544.65 3283.3 1547.49 3283.65 1550.28C3284.23 1557.97 3285.89 1565.55 3288.57 1572.79L3279.12 1575.32C3275.38 1576.32 3275.87 1582.31 3279.74 1581.39L3290.13 1578.6C3292.58 1587.75 3295.03 1596.89 3297.48 1606.03C3298.51 1609.87 3304.24 1607.56 3303.23 1603.82C3300.84 1594.89 3298.47 1586.06 3296.08 1577.12L3311.45 1573C3315.35 1572.18 3314.83 1566.08 3310.96 1567.01Z" fill="white"/>
<path d="M3334.73 1546.84C3334.29 1546.85 3333.86 1546.96 3333.48 1547.17C3306.05 1552.41 3322.11 1595.31 3347.73 1587.89C3353.02 1585.62 3357.29 1581.47 3359.69 1576.24C3362.09 1571 3362.47 1565.07 3360.74 1559.57C3360.11 1556.87 3358.88 1554.35 3357.16 1552.18C3355.43 1550.02 3353.24 1548.26 3350.75 1547.04C3348.26 1545.82 3345.54 1545.17 3342.76 1545.14C3339.99 1545.1 3337.25 1545.68 3334.73 1546.84V1546.84ZM3348.22 1580.97C3330.15 1591.26 3314.21 1556.68 3334.74 1553.51C3335.39 1553.52 3336.04 1553.35 3336.61 1553.01V1553.01C3354.55 1545.2 3362.01 1573.04 3348.22 1580.97Z" fill="white"/>
<path d="M3401.85 1540.54C3386.89 1516.71 3352.29 1548.81 3370.17 1569.41C3374.36 1573.26 3379.8 1575.46 3385.49 1575.6C3391.18 1575.73 3396.73 1573.79 3401.09 1570.14C3403.34 1568.5 3405.19 1566.39 3406.51 1563.96C3407.83 1561.52 3408.6 1558.82 3408.75 1556.05C3408.91 1553.28 3408.44 1550.51 3407.4 1547.95C3406.35 1545.38 3404.74 1543.08 3402.7 1541.21L3401.85 1540.54ZM3373.73 1564C3363.99 1549.68 3386.16 1527.27 3396.98 1544.41C3397.14 1544.72 3397.36 1544.99 3397.63 1545.21C3397.89 1545.42 3398.21 1545.58 3398.54 1545.66C3413.6 1561.11 3383.74 1578.91 3373.73 1564V1564Z" fill="white"/>
<path d="M3454.62 1557.13C3446.45 1533.71 3438.38 1510.27 3430.24 1486.95C3429.21 1483.11 3423.28 1485.48 3424.49 1489.16L3434.74 1518.7C3431.32 1518.52 3427.9 1519.13 3424.75 1520.48C3421.59 1521.83 3418.79 1523.88 3416.56 1526.48C3414.32 1529.08 3412.71 1532.15 3411.84 1535.47C3410.97 1538.79 3410.88 1542.26 3411.56 1545.62C3415.04 1561.95 3435.22 1562.44 3448.04 1557.11L3448.65 1559.4C3450.18 1563 3455.93 1560.79 3454.62 1557.13ZM3418.39 1546.58C3417.52 1544.03 3417.29 1541.3 3417.71 1538.64C3418.13 1535.98 3419.2 1533.46 3420.82 1531.31C3422.43 1529.15 3424.55 1527.43 3426.99 1526.27C3429.42 1525.12 3432.1 1524.58 3434.79 1524.7C3435.41 1524.7 3436.02 1524.54 3436.56 1524.23C3439.73 1533.17 3442.81 1542.15 3446.01 1551.2C3437.31 1554.87 3422.58 1556.81 3418.18 1546.63L3418.39 1546.58Z" fill="white"/>
</svg>
