<svg width="1118" height="214" viewBox="0 0 1118 214" fill="none" xmlns="http://www.w3.org/2000/svg">
<path fill-rule="evenodd" clip-rule="evenodd" d="M100.232 24.167H213.667C226.719 24.167 237.333 34.7813 237.333 47.833V189.833C237.333 202.886 226.719 213.5 213.667 213.5H24.3335C11.2812 213.5 0.666748 202.886 0.666748 189.833V24.167C0.666748 11.1143 11.2812 0.500009 24.3335 0.500009H71.6667C73.2209 0.498056 74.76 0.80372 76.1958 1.39845C77.6316 1.99415 78.9355 2.86622 80.033 3.96681L100.232 24.167ZM125.134 145.06C125.134 162.192 113.656 175 92.8647 175H36.8098V64.0547H91.3677C111.661 64.0547 122.971 76.6963 122.971 92.3311C122.971 106.304 113.989 115.618 103.677 117.78C115.486 119.61 125.134 131.42 125.134 145.06ZM56.271 109.963H87.3757C97.3557 109.963 103.011 103.975 103.011 95.6582C103.011 87.3418 97.3557 81.1875 87.3757 81.1875H56.271V109.963ZM56.271 157.867H88.2073C98.8528 157.867 105.174 152.046 105.174 142.398C105.174 134.082 99.3518 127.096 88.2073 127.096H56.271V157.867Z" fill="white"/>
<path d="M334.841 175V123.103C334.841 99.9829 318.041 92.6642 299.744 92.6642C287.103 92.6642 274.461 96.6562 264.647 105.306L272.632 119.444C279.451 113.123 287.435 109.963 296.085 109.963C306.73 109.963 313.716 115.286 313.716 123.436V134.248C308.394 127.927 298.912 124.434 288.267 124.434C275.459 124.434 260.323 131.587 260.323 150.382C260.323 168.347 275.459 176.996 288.267 176.996C298.746 176.996 308.227 173.17 313.716 166.683V175H334.841ZM296.75 162.691C288.433 162.691 281.614 158.366 281.614 150.881C281.614 143.064 288.433 138.739 296.75 138.739C303.57 138.739 310.223 141.068 313.716 145.725V155.705C310.223 160.363 303.57 162.691 296.75 162.691ZM352.966 206.437C355.627 207.103 360.95 207.602 363.445 207.602C377.251 207.269 387.896 203.277 393.885 188.14L431.643 94.6602H408.855L387.896 150.549L366.938 94.6602H344.317L376.918 176.164L373.924 182.984C371.928 187.309 368.269 188.806 362.78 188.806C360.784 188.806 357.956 188.307 356.126 187.475L352.966 206.437ZM510.435 175V123.103C510.435 99.9829 493.635 92.6642 475.338 92.6642C462.697 92.6642 450.055 96.6562 440.241 105.306L448.225 119.444C455.045 113.123 463.029 109.963 471.679 109.963C482.324 109.963 489.31 115.286 489.31 123.436V134.248C483.987 127.927 474.506 124.434 463.861 124.434C451.053 124.434 435.917 131.587 435.917 150.382C435.917 168.347 451.053 176.996 463.861 176.996C474.34 176.996 483.821 173.17 489.31 166.683V175H510.435ZM472.344 162.691C464.027 162.691 457.208 158.366 457.208 150.881C457.208 143.064 464.027 138.739 472.344 138.739C479.164 138.739 485.817 141.068 489.31 145.725V155.705C485.817 160.363 479.164 162.691 472.344 162.691ZM606.738 175V118.28C606.738 102.644 598.254 92.6642 580.623 92.6642C567.482 92.6642 557.669 98.9849 552.512 105.139V94.6602H531.388V175H552.512V120.941C556.005 116.117 562.492 111.46 570.809 111.46C579.791 111.46 585.613 115.286 585.613 126.43V175H606.738ZM638.192 86.0108C645.178 86.0108 650.833 80.3554 650.833 73.3693C650.833 66.3832 645.178 60.8942 638.192 60.8942C631.372 60.8942 625.55 66.3832 625.55 73.3693C625.55 80.3554 631.372 86.0108 638.192 86.0108ZM648.837 175V94.6602H627.713V175H648.837ZM745.3 175V117.947C745.3 102.312 736.817 92.6642 719.185 92.6642C706.045 92.6642 696.065 98.9849 690.908 105.139V64.0545H669.784V175H690.908V120.941C694.568 116.117 701.055 111.46 709.205 111.46C718.354 111.46 724.175 114.953 724.175 126.098V175H745.3ZM835.633 175V123.103C835.633 99.9829 818.833 92.6642 800.536 92.6642C787.895 92.6642 775.253 96.6562 765.439 105.306L773.423 119.444C780.243 113.123 788.227 109.963 796.877 109.963C807.522 109.963 814.508 115.286 814.508 123.436V134.248C809.185 127.927 799.704 124.434 789.059 124.434C776.251 124.434 761.115 131.587 761.115 150.382C761.115 168.347 776.251 176.996 789.059 176.996C799.538 176.996 809.019 173.17 814.508 166.683V175H835.633ZM797.542 162.691C789.225 162.691 782.405 158.366 782.405 150.881C782.405 143.064 789.225 138.739 797.542 138.739C804.362 138.739 811.015 141.068 814.508 145.725V155.705C811.015 160.363 804.362 162.691 797.542 162.691ZM931.935 175V118.28C931.935 102.644 923.452 92.6642 905.821 92.6642C892.68 92.6642 882.867 98.9849 877.71 105.139V94.6602H856.586V175H877.71V120.941C881.203 116.117 887.69 111.46 896.007 111.46C904.989 111.46 910.811 115.286 910.811 126.43V175H931.935ZM1022.27 175V64.0545H1017.28V108.466C1010.8 98.9849 1000.32 92.6642 988.34 92.6642C966.716 92.6642 952.412 109.63 952.412 134.913C952.412 160.363 966.716 176.996 988.34 176.996C1000.98 176.996 1011.79 169.844 1017.28 161.527V175H1022.27ZM988.34 172.505C968.712 172.505 957.901 156.038 957.901 134.913C957.901 113.789 968.712 97.1552 988.34 97.1552C1000.82 97.1552 1012.29 104.973 1017.28 113.456V156.537C1012.29 165.02 1000.82 172.505 988.34 172.505ZM1053.44 80.8544C1056.11 80.8544 1058.27 78.692 1058.27 76.0307C1058.27 73.3693 1056.11 71.2069 1053.44 71.2069C1050.95 71.2069 1048.62 73.3693 1048.62 76.0307C1048.62 78.692 1050.95 80.8544 1053.44 80.8544ZM1055.94 175V94.6602H1050.95V175H1055.94ZM1089.56 175V114.787C1093.22 107.302 1104.7 98.9849 1113.18 98.9849C1114.68 98.9849 1115.68 98.9849 1117.18 99.1512V93.1632C1105.53 93.1632 1096.72 99.8166 1089.56 109.298V94.6602H1084.57V175H1089.56Z" fill="white"/>
</svg>
