<svg width="238" height="214" viewBox="0 0 238 214" fill="none" xmlns="http://www.w3.org/2000/svg">
<path fill-rule="evenodd" clip-rule="evenodd" d="M100.232 24.167H213.667C226.719 24.167 237.333 34.7813 237.333 47.833V189.833C237.333 202.886 226.719 213.5 213.667 213.5H24.3335C11.2812 213.5 0.666748 202.886 0.666748 189.833V24.167C0.666748 11.1143 11.2812 0.500009 24.3335 0.500009H71.6667C73.2209 0.498056 74.76 0.80372 76.1958 1.39845C77.6316 1.99415 78.9355 2.86622 80.033 3.96681L100.232 24.167ZM125.134 145.06C125.134 162.192 113.656 175 92.8647 175H36.8098V64.0547H91.3677C111.661 64.0547 122.971 76.6963 122.971 92.3311C122.971 106.304 113.989 115.618 103.677 117.78C115.486 119.61 125.134 131.42 125.134 145.06ZM56.271 109.963H87.3757C97.3557 109.963 103.011 103.975 103.011 95.6582C103.011 87.3418 97.3557 81.1875 87.3757 81.1875H56.271V109.963ZM56.271 157.867H88.2073C98.8528 157.867 105.174 152.046 105.174 142.398C105.174 134.082 99.3518 127.096 88.2073 127.096H56.271V157.867Z" fill="white"/>
</svg>
