<svg width="146" height="186" viewBox="0 0 146 186" fill="none" xmlns="http://www.w3.org/2000/svg">
<path d="M73.0001 185.75L17.1116 119.838C16.335 118.848 15.5665 117.852 14.8061 116.85C5.25932 104.274 0.101937 88.9139 0.125078 73.125C0.125078 53.7973 7.80296 35.2613 21.4697 21.5946C35.1364 7.92788 53.6724 0.25 73.0001 0.25C92.3277 0.25 110.864 7.92788 124.53 21.5946C138.197 35.2613 145.875 53.7973 145.875 73.125C145.898 88.9067 140.743 104.26 131.201 116.83L131.194 116.85C131.194 116.85 129.207 119.46 128.908 119.811L73.0001 185.75ZM25.3796 108.867C25.3928 108.867 26.9298 110.907 27.281 111.345L73.0001 165.266L118.779 111.272C119.07 110.907 120.621 108.854 120.627 108.847C128.426 98.5724 132.64 86.0241 132.625 73.125C132.625 57.3115 126.343 42.1456 115.161 30.9638C103.979 19.7819 88.8136 13.5 73.0001 13.5C57.1865 13.5 42.0207 19.7819 30.8388 30.9638C19.657 42.1456 13.3751 57.3115 13.3751 73.125C13.3612 86.0321 17.5805 98.5876 25.3862 108.867H25.3796Z" fill="black"/>
</svg>
