<svg width="43" height="56" viewBox="0 0 43 56" fill="none" xmlns="http://www.w3.org/2000/svg">
<path d="M5.12992 34.0306L5.12977 34.0304C2.44392 30.4665 0.993576 26.1144 1.00002 21.6417L5.12992 34.0306ZM5.12992 34.0306L5.12994 34.0306M5.12992 34.0306L5.12994 34.0306M5.12994 34.0306L5.13002 34.0308M5.12994 34.0306L5.13002 34.0308M5.13002 34.0308L5.13033 34.0312M5.13002 34.0308L5.13033 34.0312M5.13033 34.0312L5.13152 34.0327M5.13033 34.0312L5.13152 34.0327M5.13152 34.0327L5.13608 34.0388M5.13152 34.0327L5.13608 34.0388M5.13608 34.0388L5.15175 34.0596M5.13608 34.0388L5.15175 34.0596M5.15175 34.0596L5.15196 34.0598M5.15175 34.0596L5.15196 34.0598M5.15196 34.0598L5.15332 34.0616L5.21525 34.1436C5.26681 34.2118 5.33659 34.3039 5.40924 34.3994C5.53845 34.5693 5.71282 34.7977 5.78258 34.8804C5.78389 34.8819 5.78516 34.8834 5.7864 34.8849L20.735 52.644L21.5 53.5529L22.2651 52.644L37.2251 34.8708L37.2251 34.8708L37.2317 34.8628C37.2863 34.7965 37.4558 34.5749 37.5903 34.3986C37.6623 34.3041 37.7318 34.2127 37.7832 34.145L37.8451 34.0636L37.8623 34.0409L37.8668 34.0349L37.868 34.0334L37.8683 34.033L37.8684 34.0329L37.8684 34.0329L37.0716 33.4286L37.8684 34.0328L37.9689 33.9004L37.9718 33.8915C40.5925 30.3541 42.0063 26.0565 42 21.6414M5.15196 34.0598L1.00002 21.6414C1.0065 16.1713 3.16648 10.9257 7.00849 7.05552C10.8508 3.18506 16.0618 1.00646 21.4988 1L21.5 2L21.5012 1C26.9382 1.00646 32.1492 3.18506 35.9915 7.05552C39.8335 10.9257 41.9935 16.1713 42 21.6414M42 21.6414C42 21.6415 42 21.6416 42 21.6417L41 21.6429L42 21.6414ZM29.3649 19.4179C29.3649 20.4174 28.9942 21.3781 28.33 22.1131L28.246 22.1995L21.5048 29.137L14.7577 22.2033C14.757 22.2027 14.7564 22.202 14.7557 22.2013C14.04 21.4559 13.6387 20.4579 13.6387 19.4179C13.6387 18.3772 14.0405 17.3787 14.757 16.6331C15.1038 16.2743 15.5179 15.9895 15.9748 15.7952C16.4321 15.6006 16.9232 15.5005 17.4192 15.5005C17.9151 15.5005 18.4062 15.6006 18.8635 15.7952C19.3209 15.9897 19.7353 16.2748 20.0822 16.634L20.0849 16.6367L20.7886 17.3599L21.509 18.1001L22.2255 17.3563L22.9213 16.634C22.9215 16.6338 22.9217 16.6335 22.9219 16.6333C23.2687 16.2744 23.683 15.9896 24.14 15.7952C24.5973 15.6006 25.0884 15.5005 25.5844 15.5005C26.0803 15.5005 26.5714 15.6006 27.0287 15.7952C27.4856 15.9895 27.8998 16.2743 28.2465 16.6331C28.9631 17.3787 29.3649 18.3772 29.3649 19.4179Z" fill="#2E3434" stroke="white" stroke-width="2"/>
</svg>
