<svg width="1788" height="1332" viewBox="0 0 1788 1332" fill="none" xmlns="http://www.w3.org/2000/svg">
<path d="M1570.78 351.64C1571.75 345.89 1571.44 339.998 1569.88 334.38C1568.33 328.761 1565.56 323.553 1561.77 319.122C1557.98 314.692 1553.26 311.146 1547.95 308.737C1542.64 306.328 1536.87 305.113 1531.04 305.178C1528.84 305.186 1526.66 305.377 1524.5 305.75C1519.88 298.041 1513.1 291.854 1505.01 287.952C1496.91 284.051 1487.85 282.606 1478.95 283.796C1470.04 284.986 1461.68 288.758 1454.89 294.648C1448.1 300.537 1443.19 308.286 1440.76 316.937C1437.89 316.058 1434.9 315.612 1431.89 315.614C1423.97 315.614 1416.37 318.762 1410.77 324.365C1405.16 329.969 1402.02 337.568 1402.02 345.493C1402.02 347.607 1402.25 349.715 1402.69 351.783L1570.78 351.64Z" fill="#F0F0F0"/>
<path d="M518.917 192.561C519.51 189.018 519.82 185.432 519.846 181.839C519.846 163.46 512.545 145.833 499.548 132.837C486.552 119.841 468.926 112.54 450.546 112.54C446.784 112.565 443.031 112.9 439.324 113.54C431.397 100.298 419.766 89.6663 405.867 82.9582C391.968 76.25 376.408 73.759 361.109 75.7925C345.81 77.826 331.441 84.2951 319.777 94.4012C308.112 104.507 299.662 117.808 295.47 132.661C286.899 129.975 277.771 129.587 269.002 131.536C260.233 133.486 252.13 137.704 245.504 143.77C238.878 149.835 233.961 157.534 231.245 166.097C228.53 174.66 228.111 183.786 230.031 192.561H518.917Z" fill="#F0F0F0"/>
<path d="M1787.69 1170.19H0.6875V1171.09H1787.69V1170.19Z" fill="#EBEBEB"/>
<path d="M1608.63 1227.7H1490.26V1228.59H1608.63V1227.7Z" fill="#EBEBEB"/>
<path d="M1184.47 1237.42H1153.41V1238.31H1184.47V1237.42Z" fill="#EBEBEB"/>
<path d="M1486.68 1194.53H1418.1V1195.42H1486.68V1194.53Z" fill="#EBEBEB"/>
<path d="M342.54 1200.54H188.179V1201.43H342.54V1200.54Z" fill="#EBEBEB"/>
<path d="M397.008 1200.54H374.384V1201.43H397.008V1200.54Z" fill="#EBEBEB"/>
<path d="M805.372 1215.62H470.561V1216.51H805.372V1215.62Z" fill="#EBEBEB"/>
<path d="M847.725 1010.79H157.622C152.216 1010.78 147.034 1008.63 143.215 1004.8C139.395 1000.98 137.25 995.791 137.25 990.385V20.2952C137.297 14.92 139.463 9.78045 143.277 5.99287C147.092 2.20529 152.246 0.0756142 157.622 0.0664062H847.725C853.137 0.0664063 858.328 2.21648 862.155 6.04363C865.982 9.87078 868.132 15.0615 868.132 20.4739V990.385C868.132 995.797 865.982 1000.99 862.155 1004.82C858.328 1008.64 853.137 1010.79 847.725 1010.79V1010.79ZM157.622 0.781208C152.453 0.790676 147.498 2.85078 143.846 6.50934C140.195 10.1679 138.143 15.126 138.143 20.2952V990.385C138.143 995.554 140.195 1000.51 143.846 1004.17C147.498 1007.83 152.453 1009.89 157.622 1009.9H847.725C852.897 1009.89 857.855 1007.83 861.513 1004.17C865.17 1000.52 867.229 995.558 867.239 990.385V20.2952C867.229 15.1227 865.17 10.1647 861.513 6.50716C857.855 2.84962 852.897 0.790656 847.725 0.781208H157.622Z" fill="#EBEBEB"/>
<path d="M1620.82 1010.79H930.677C925.268 1010.78 920.082 1008.63 916.257 1004.8C912.432 1000.98 910.279 995.794 910.27 990.385V20.2952C910.326 14.9168 912.5 9.77723 916.32 5.99064C920.14 2.20404 925.298 0.0755138 930.677 0.0664062H1620.82C1626.18 0.0850071 1631.33 2.21884 1635.14 6.00542C1638.94 9.79199 1641.1 14.9262 1641.15 20.2952V990.385C1641.15 995.785 1639.01 1000.96 1635.2 1004.79C1631.39 1008.62 1626.22 1010.77 1620.82 1010.79V1010.79ZM930.677 0.781208C925.504 0.790656 920.547 2.84962 916.889 6.50716C913.231 10.1647 911.172 15.1227 911.163 20.2952V990.385C911.172 995.558 913.231 1000.52 916.889 1004.17C920.547 1007.83 925.504 1009.89 930.677 1009.9H1620.82C1625.99 1009.89 1630.95 1007.83 1634.6 1004.17C1638.26 1000.52 1640.32 995.558 1640.33 990.385V20.2952C1640.32 15.1227 1638.26 10.1647 1634.6 6.50716C1630.95 2.84962 1625.99 0.790656 1620.82 0.781208H930.677Z" fill="#EBEBEB"/>
<path d="M136.178 1066.76V829.162H250.617V764.186H305.406V573.228L376.172 502.463H519.846V707.074H716.952V747.496H856.302V694.386H1006.02V654.358H1122.92V417.33H1329.89V568.367H1377.53V623.085H1488.29V712.828H1547.48L1593.01 758.361V804.68H1638.36V1066.76H136.178Z" fill="#F0F0F0"/>
<path d="M275.564 829.162H252.583L250.617 827.804V829.162H136.178V1066.76H275.564V829.162Z" fill="#E6E6E6"/>
<path d="M858.304 711.685V747.496H852.657L846.652 785.81L863.629 1066.76H1052.44V694.387H1008.02H860.984L858.304 711.685Z" fill="#E6E6E6"/>
<path d="M1297.87 623.086V1066.76H1640.33V804.681H1594.98V758.362L1549.44 712.829H1490.26V623.086H1389.72H1379.5H1297.87Z" fill="#E6E6E6"/>
<path d="M1549.66 736.917H1528.96V757.61H1549.66V736.917Z" fill="white"/>
<path d="M1513.1 736.917H1492.4V757.61H1513.1V736.917Z" fill="white"/>
<path d="M1549.66 775.48H1528.96V796.174H1549.66V775.48Z" fill="white"/>
<path d="M1513.1 775.48H1492.4V796.174H1513.1V775.48Z" fill="white"/>
<path d="M1436.65 639.776H1415.95V660.47H1436.65V639.776Z" fill="white"/>
<path d="M1400.09 639.776H1379.39V660.47H1400.09V639.776Z" fill="white"/>
<path d="M251.546 862.65H230.853V883.344H251.546V862.65Z" fill="white"/>
<path d="M214.984 862.65H194.291V883.344H214.984V862.65Z" fill="white"/>
<path d="M1028.6 775.909V755.216H1007.91V775.909H1028.6Z" fill="white"/>
<path d="M1028.6 739.348V718.654H1007.91V739.348H1028.6Z" fill="white"/>
<path d="M887.253 1331.59C1269.97 1331.59 1580.22 1313.48 1580.22 1291.14C1580.22 1268.79 1269.97 1250.68 887.253 1250.68C504.541 1250.68 194.291 1268.79 194.291 1291.14C194.291 1313.48 504.541 1331.59 887.253 1331.59Z" fill="#F5F5F5"/>
<path d="M1585.86 1114.94H1390.61V1276.41H1585.86V1114.94Z" fill="#2E3434"/>
<path opacity="0.3" d="M1585.86 1114.94H1390.61V1276.41H1585.86V1114.94Z" fill="white"/>
<path d="M1438.76 1114.94H1287.43V1276.41H1438.76V1114.94Z" fill="#2E3434"/>
<path opacity="0.1" d="M1438.76 1114.94H1287.43V1276.41H1438.76V1114.94Z" fill="white"/>
<path opacity="0.3" d="M1384.5 1114.94H1341.69V1165.19H1384.5V1114.94Z" fill="white"/>
<path opacity="0.1" d="M1544.26 1114.94H1501.44V1165.19H1544.26V1114.94Z" fill="black"/>
<path d="M1503.77 1209.97H1498.12C1498.03 1208.33 1498.03 1206.68 1498.12 1205.04C1498.12 1202.47 1500.09 1197.5 1503.66 1199.75C1504.77 1200.43 1506.05 1198.86 1504.95 1198.18C1504.15 1197.7 1503.24 1197.42 1502.3 1197.38C1501.37 1197.33 1500.44 1197.52 1499.6 1197.92C1498.75 1198.33 1498.02 1198.93 1497.47 1199.69C1496.92 1200.45 1496.57 1201.33 1496.44 1202.25C1495.96 1204.77 1495.84 1207.35 1496.08 1209.9H1492.83C1491.54 1209.9 1491.19 1211.87 1492.51 1211.9H1496.08C1496.08 1215.05 1496.08 1218.19 1496.08 1221.34C1496.08 1222.66 1498.12 1222.41 1498.12 1221.12C1498.12 1218.05 1498.12 1215.01 1498.12 1211.94H1503.41C1504.73 1212.01 1505.09 1210.01 1503.77 1209.97Z" fill="white"/>
<path d="M1513.13 1205.54C1512.99 1205.5 1512.84 1205.5 1512.7 1205.54C1503.45 1204.86 1504.91 1220.01 1513.77 1219.84C1515.67 1219.56 1517.39 1218.6 1518.62 1217.12C1519.84 1215.65 1520.47 1213.78 1520.39 1211.87C1520.42 1210.94 1520.24 1210.03 1519.87 1209.19C1519.5 1208.34 1518.95 1207.59 1518.26 1206.98C1517.56 1206.38 1516.74 1205.93 1515.86 1205.69C1514.97 1205.44 1514.04 1205.39 1513.13 1205.54V1205.54ZM1514.53 1217.66C1507.84 1219.41 1505.7 1206.93 1512.56 1207.68C1512.77 1207.74 1512.99 1207.74 1513.2 1207.68V1207.68C1519.64 1206.72 1519.64 1216.3 1514.53 1217.66Z" fill="white"/>
<path d="M1535.22 1209.29C1532.47 1200.36 1518.6 1207.68 1522.57 1215.83C1523.58 1217.43 1525.14 1218.6 1526.95 1219.14C1528.77 1219.67 1530.71 1219.52 1532.43 1218.73C1533.29 1218.4 1534.07 1217.88 1534.7 1217.21C1535.33 1216.54 1535.81 1215.74 1536.1 1214.86C1536.39 1213.99 1536.48 1213.06 1536.36 1212.15C1536.25 1211.23 1535.93 1210.35 1535.43 1209.58L1535.22 1209.29ZM1524.17 1214.4C1522.28 1208.97 1531.32 1203.68 1533.32 1210.11C1533.35 1210.23 1533.39 1210.33 1533.46 1210.43C1533.53 1210.52 1533.62 1210.59 1533.72 1210.65C1537.22 1216.9 1526.1 1220.05 1524.17 1214.4V1214.4Z" fill="white"/>
<path d="M1550.73 1219.16C1550.12 1210.94 1549.55 1202.72 1548.94 1194.53C1548.94 1193.21 1546.83 1193.46 1546.91 1194.75L1547.66 1205.11C1546.57 1204.76 1545.42 1204.66 1544.29 1204.82C1543.17 1204.98 1542.09 1205.4 1541.15 1206.04C1540.21 1206.69 1539.42 1207.53 1538.86 1208.52C1538.3 1209.51 1537.97 1210.62 1537.9 1211.76C1537.61 1217.3 1544.05 1219.19 1548.62 1218.58V1219.37C1548.8 1220.66 1550.84 1220.44 1550.73 1219.16ZM1540.01 1212.65C1539.95 1211.76 1540.11 1210.86 1540.47 1210.05C1540.84 1209.23 1541.4 1208.51 1542.1 1207.96C1542.81 1207.41 1543.63 1207.03 1544.51 1206.87C1545.4 1206.71 1546.3 1206.77 1547.16 1207.04C1547.35 1207.09 1547.56 1207.09 1547.76 1207.04C1548.01 1210.19 1548.23 1213.33 1548.48 1216.51C1545.37 1216.94 1540.47 1216.3 1539.94 1212.65H1540.01Z" fill="white"/>
<path d="M894.079 144.849H411.769C382.161 144.849 358.159 168.851 358.159 198.459V1204.68C358.159 1234.29 382.161 1258.29 411.769 1258.29H894.079C923.687 1258.29 947.689 1234.29 947.689 1204.68V198.459C947.689 168.851 923.687 144.849 894.079 144.849Z" fill="#263238"/>
<path d="M909.591 219.08H396.293V1114.58H909.591V219.08Z" fill="#2E3434"/>
<path opacity="0.3" d="M909.591 1025.8H396.293V1114.55H909.591V1025.8Z" fill="white"/>
<path opacity="0.1" d="M909.591 587.56C779.104 717.331 537.466 960.077 396.293 1102.22V1114.72H683.107L909.591 888.276V587.56Z" fill="white"/>
<path opacity="0.1" d="M396.293 669.404L846.617 219.08H636.037C580.283 274.406 485.036 369.831 396.293 458.895V669.404Z" fill="white"/>
<path opacity="0.1" d="M396.293 857.647L909.591 344.349V234.521L396.293 747.782V857.647Z" fill="white"/>
<path opacity="0.2" d="M909.591 219.08H396.293V259.466H909.591V219.08Z" fill="black"/>
<path d="M658.603 1210.54C677.677 1207.45 690.63 1189.48 687.534 1170.4C684.438 1151.33 666.465 1138.37 647.39 1141.47C628.316 1144.57 615.363 1162.54 618.459 1181.61C621.555 1200.69 639.528 1213.64 658.603 1210.54Z" fill="#2E3434"/>
<g opacity="0.6">
<path opacity="0.6" d="M451.798 248.53H459.553V238.166H451.798V248.53Z" fill="white"/>
<path opacity="0.6" d="M439.146 248.53H446.901V234.735H439.146V248.53Z" fill="white"/>
<path opacity="0.6" d="M426.494 248.53H434.25V231.268H426.494V248.53Z" fill="white"/>
<path opacity="0.6" d="M413.842 248.53H421.597V227.801H413.842V248.53Z" fill="white"/>
</g>
<path opacity="0.6" d="M855.123 234.377H850.512V244.742H855.123V234.377Z" fill="white"/>
<path opacity="0.6" d="M858.304 248.53H895.009V230.625H858.304V248.53Z" fill="white"/>
<path opacity="0.4" d="M678.496 754.179C666.738 743.457 652.942 757.753 652.942 757.753C652.942 757.753 639.182 743.457 627.388 754C610.59 769.047 635.001 795.959 652.942 801.356C670.884 796.102 695.294 769.19 678.496 754.179Z" fill="white"/>
<path d="M799.94 829.233H505.943C497.052 829.233 488.525 832.765 482.238 839.052C475.951 845.339 472.419 853.866 472.419 862.757C472.419 871.649 475.951 880.176 482.238 886.463C488.525 892.75 497.052 896.282 505.943 896.282H799.94C808.832 896.282 817.359 892.75 823.646 886.463C829.932 880.176 833.464 871.649 833.464 862.757C833.464 853.866 829.932 845.339 823.646 839.052C817.359 832.765 808.832 829.233 799.94 829.233V829.233Z" fill="white"/>
<path opacity="0.3" d="M947.725 462.506L840.041 477.838L868.168 677.911L947.725 669.833V462.506Z" fill="#263238"/>
<path opacity="0.7" d="M657.91 712.792C767.38 712.792 856.123 624.049 856.123 514.578C856.123 405.108 767.38 316.364 657.91 316.364C548.439 316.364 459.696 405.108 459.696 514.578C459.696 624.049 548.439 712.792 657.91 712.792Z" fill="white"/>
<path d="M728.997 393.384C728.997 393.384 769.49 453.284 792.221 455.714C814.951 458.145 903.872 381.661 903.872 381.661L918.954 394.706C918.954 394.706 834.358 487.63 799.047 493.063C763.736 498.495 696.616 428.516 696.616 428.516L728.997 393.384Z" fill="#E4897B"/>
<path d="M719.347 397.852C719.347 397.852 733.643 383.842 753.3 408.181C772.957 432.52 781.034 437.488 781.034 437.488L730.998 486.344C730.998 486.344 701.584 410.862 719.347 397.852Z" fill="#2E3434"/>
<path d="M896.831 376.122C896.831 376.122 898.583 353.642 903.801 352.212C909.019 350.782 907.16 367.401 907.16 367.401C907.16 367.401 934.68 350.604 940.22 352.105C945.759 353.606 944.866 364.471 943.794 367.401C935.395 392.419 905.373 402.784 905.373 402.784L893.257 391.347L896.831 376.122Z" fill="#E4897B"/>
<path d="M690.469 333.913C690.469 333.913 718.096 379.946 709.625 408.967C701.155 437.988 657.588 411.898 657.588 411.898L658.124 354.714L690.469 333.913Z" fill="#263238"/>
<path d="M616.38 254.57C616.38 254.57 575.529 275.264 591.576 348.066C618.453 470.118 658.124 419.546 658.124 419.546C658.124 419.546 656.373 371.44 640.254 348.066C624.135 324.692 627.495 291.347 627.495 291.347L616.38 254.57Z" fill="#263238"/>
<path d="M734.858 577.016L612.377 587.738C611.19 557.378 606.817 527.227 599.332 497.781C596.401 486.058 592.756 472.941 588.038 457.823C585.501 449.71 582.713 441.026 579.603 431.698C577.28 424.55 574.743 417.08 571.955 409.11C588.592 403.791 605.588 399.67 622.813 396.78C640.972 393.528 659.343 391.593 677.781 390.99C701.62 390.775 728.996 393.456 728.996 393.456C728.996 393.456 732.892 394.385 735.358 419.653C737.574 443.242 739.754 490.74 734.858 577.016Z" fill="#2E3434"/>
<path opacity="0.2" d="M734.858 577.016L612.377 587.738C611.19 557.378 606.817 527.227 599.332 497.781C596.401 486.058 592.756 472.941 588.038 457.823C585.501 449.71 582.713 441.026 579.603 431.698C577.28 424.55 574.743 417.08 571.955 409.11C588.592 403.791 605.588 399.67 622.813 396.78C640.972 393.528 659.343 391.593 677.781 390.99C701.62 390.775 728.996 393.456 728.996 393.456C728.996 393.456 732.892 394.385 735.358 419.653C737.574 443.242 739.754 490.74 734.858 577.016Z" fill="white"/>
<path opacity="0.2" d="M611.841 578.41C631.462 570.761 696.151 539.096 696.151 539.096L610.375 558.467C610.769 564.971 611.305 571.548 611.841 578.41Z" fill="black"/>
<path d="M667.703 417.937C637.502 414.077 628.389 401.211 628.389 401.211C647.545 383.127 631.641 351.818 631.641 351.818L667.953 358.609C667.122 363.668 666.656 368.78 666.559 373.906C666.273 395.957 676.244 396.172 676.244 396.172C682.642 408.109 667.703 417.937 667.703 417.937Z" fill="#E4897B"/>
<path opacity="0.2" d="M667.989 358.609C667.158 363.668 666.692 368.78 666.595 373.906C642.041 373.906 631.677 351.818 631.677 351.818L667.989 358.609Z" fill="black"/>
<path d="M651.691 256.894C683.285 255.143 690.433 270.296 694.579 302.712C699.726 343.242 692.435 373.942 652.477 367.438C608.624 360.29 596.33 290.847 622.706 264.292C628.889 258.002 641.648 257.394 651.691 256.894Z" fill="#E4897B"/>
<path d="M674.171 306.822C676.954 311.398 680.278 315.622 684.071 319.403C683.225 320.76 682.018 321.857 680.586 322.57C679.154 323.283 677.552 323.584 675.958 323.441L674.171 306.822Z" fill="#DE5753"/>
<path d="M655.051 303.177C656.385 302.501 657.464 301.41 658.124 300.067L652.656 302.712C651.859 303.176 651.225 303.875 650.841 304.713C650.457 305.551 650.342 306.488 650.512 307.394C650.69 310.003 652.263 311.969 654.086 311.862C655.908 311.754 657.052 309.503 656.873 306.929C656.786 305.487 656.13 304.138 655.051 303.177V303.177Z" fill="#263238"/>
<path d="M685.715 300.281C687.05 299.605 688.129 298.514 688.789 297.172L683.356 299.817C682.557 300.289 681.921 300.993 681.531 301.836C681.142 302.678 681.018 303.62 681.176 304.534C681.391 307.143 682.963 309.109 684.75 308.966C686.537 308.823 687.717 306.643 687.502 304.034C687.48 303.319 687.309 302.616 687.001 301.971C686.694 301.325 686.256 300.75 685.715 300.281V300.281Z" fill="#263238"/>
<path d="M655.015 288.595C652.501 288.435 649.984 288.85 647.655 289.81C645.326 290.77 643.247 292.25 641.577 294.135" stroke="#263238" stroke-width="0.707336" stroke-linecap="round" stroke-linejoin="round"/>
<path d="M674.207 287.308C676.152 286.211 678.318 285.568 680.546 285.426C682.774 285.283 685.005 285.646 687.073 286.486" stroke="#263238" stroke-width="0.707336" stroke-linecap="round" stroke-linejoin="round"/>
<path d="M600.44 404.536C600.44 404.536 635.894 433.306 668.882 432.842C701.87 432.377 713.485 395.279 713.485 395.279C713.485 395.279 662.306 380.125 600.44 404.536Z" fill="#E4897B"/>
<path d="M548.295 476.372C548.295 476.372 537.144 542.134 538.467 560.861C539.789 579.589 568.095 580.161 584.035 578.267C602.37 576.087 697.974 538.274 697.974 538.274L693.543 519.367C693.543 519.367 618.703 539.739 586.823 543.313C585.333 543.465 583.829 543.275 582.424 542.758C581.019 542.24 579.751 541.408 578.716 540.325C577.682 539.242 576.909 537.938 576.455 536.511C576.002 535.084 575.881 533.572 576.101 532.091L583.499 483.27L548.295 476.372Z" fill="#E4897B"/>
<path d="M571.955 408.967C571.955 408.967 591.505 404.642 595.293 435.7C597.586 454.508 595.129 473.591 588.145 491.205L538.61 482.27C538.61 482.27 550.011 410.575 571.955 408.967Z" fill="#2E3434"/>
<path d="M717.953 500.426C716.732 499.684 715.291 499.393 713.878 499.604C708.017 501.105 690.219 518.725 689.182 521.048L693.757 537.738C693.757 537.738 703.121 542.742 707.66 541.312C712.199 539.883 735.215 522.942 735.251 518.868C735.278 518.642 735.278 518.414 735.251 518.189C736.073 517.581 736.752 517.081 737.217 516.795C741.112 514.364 726.709 503.607 717.953 500.426Z" fill="#E4897B"/>
<path d="M649.833 257.001C649.833 257.001 653.871 296.601 620.847 298.03C587.824 299.46 615.415 262.541 615.415 262.541L649.833 257.001Z" fill="#263238"/>
<path d="M642.756 244.778C588.467 246.493 592.97 325.908 622.313 348.066C622.313 348.066 608.017 328.838 616.308 312.112C616.308 312.112 627.03 286.236 623.456 266.329C631.849 262.687 640.761 260.383 649.868 259.503C655.98 266.937 671.312 289.524 691.398 289.06C692.558 292.562 693.454 296.146 694.078 299.782C694.078 299.782 697.116 243.098 642.756 244.778Z" fill="#263238"/>
<path d="M682.392 338.666C679.32 340.301 675.906 341.185 672.427 341.247C668.949 341.309 665.505 340.547 662.377 339.024C662.29 338.975 662.212 338.91 662.15 338.831C662.088 338.753 662.042 338.662 662.016 338.566C661.989 338.469 661.982 338.368 661.995 338.269C662.008 338.17 662.041 338.074 662.091 337.987C662.133 337.902 662.191 337.826 662.263 337.764C662.335 337.703 662.42 337.657 662.511 337.63C662.601 337.604 662.697 337.596 662.791 337.608C662.885 337.62 662.975 337.652 663.056 337.701V337.701C665.969 339.095 669.168 339.786 672.396 339.718C675.624 339.649 678.79 338.824 681.641 337.308C681.813 337.217 682.013 337.196 682.199 337.25C682.386 337.303 682.544 337.426 682.642 337.594V337.594C682.731 337.76 682.751 337.955 682.698 338.135C682.644 338.316 682.521 338.469 682.356 338.559L682.392 338.666Z" fill="#263238"/>
<path d="M621.848 318.509C621.342 314.871 619.414 311.582 616.486 309.364C613.557 307.146 609.869 306.18 606.23 306.679C596.508 308.252 592.934 328.624 617.559 332.126C621.062 332.627 622.849 329.088 621.848 318.509Z" fill="#E4897B"/>
<path d="M618.167 462.934L651.048 458.288C651.048 458.288 661.77 493.349 642.256 497.102C620.919 501.248 618.167 462.934 618.167 462.934Z" fill="#2E3434"/>
<path d="M742.041 651.856C740.397 635.63 737.824 613.543 734.536 596.173L734.858 577.017L612.377 587.739L611.269 605.609C608.41 610.898 595.901 637.095 590.254 701.177C615.725 710.417 642.82 714.341 669.866 712.706C696.912 711.071 723.337 703.912 747.51 691.67L742.041 651.856Z" fill="#263238"/>
<path d="M1052.66 592.707L990.363 608.504C985.552 605.527 979.837 604.362 974.244 605.216C965.416 606.86 943.329 624.909 944.187 627.553C945.045 630.198 971.671 642.457 975.495 641.456C989.219 637.882 1003.37 621.907 1003.37 621.907L1059.06 610.434L1052.66 592.707Z" fill="#E4897B"/>
<path d="M1208.7 368.688C1196.05 382.162 1162.52 381.019 1162.52 381.019C1162.52 381.019 1151.48 381.984 1148.73 372.62C1160.84 369.618 1162.7 360.897 1164.6 353.356C1165.53 348.696 1165.53 343.898 1164.6 339.239C1164.21 336.611 1163.66 334.009 1162.95 331.447L1201.87 297.602C1198.26 318.152 1194.4 355.107 1208.7 368.688Z" fill="#E4897B"/>
<path opacity="0.2" d="M1194.08 317.795C1194.4 342.813 1174.57 351.176 1164.7 353.356C1165.63 348.697 1165.63 343.899 1164.7 339.239L1194.08 317.795Z" fill="black"/>
<path d="M1197.3 323.299C1193.51 329.995 1187.63 335.263 1180.56 338.291C1173.49 341.32 1165.62 341.941 1158.16 340.061C1148.46 337.835 1139.98 331.977 1134.47 323.692C1133.68 322.548 1132.96 321.354 1132.32 320.118C1120.35 297.316 1113.88 256.322 1137.61 238.881C1142.83 234.965 1148.97 232.457 1155.44 231.597C1161.9 230.737 1168.48 231.553 1174.54 233.968C1180.6 236.383 1185.94 240.316 1190.05 245.388C1194.15 250.46 1196.88 256.502 1197.98 262.934C1203.12 290.275 1207.48 306.108 1197.3 323.299Z" fill="#E4897B"/>
<path d="M1157.34 282.591C1157.72 283.424 1157.76 284.371 1157.46 285.235C1157.16 286.099 1156.54 286.816 1155.73 287.238C1154.3 287.595 1152.69 286.094 1152.16 283.914C1151.62 281.734 1152.34 279.625 1153.77 279.267C1155.2 278.91 1156.77 280.375 1157.34 282.591Z" fill="#263238"/>
<path d="M1133.22 287.666C1133.93 289.81 1133.04 291.955 1131.64 292.312C1130.25 292.669 1128.57 291.168 1128.07 288.988C1127.57 286.808 1128.25 284.699 1129.68 284.342C1131.11 283.985 1132.68 285.593 1133.22 287.666Z" fill="#263238"/>
<path d="M1141.9 288.345C1141.21 295.528 1139.52 302.579 1136.86 309.288C1140.43 310.718 1145.44 308.466 1148.83 306.608L1141.9 288.345Z" fill="#DE5753"/>
<path d="M1164.49 270.868C1164.26 270.956 1164.02 270.983 1163.78 270.945C1163.54 270.908 1163.32 270.807 1163.13 270.654C1161.85 269.58 1160.34 268.821 1158.71 268.436C1157.08 268.051 1155.39 268.052 1153.77 268.438C1153.6 268.511 1153.41 268.548 1153.23 268.547C1153.05 268.546 1152.87 268.507 1152.7 268.432C1152.53 268.356 1152.38 268.247 1152.26 268.11C1152.13 267.973 1152.04 267.813 1151.98 267.638C1151.92 267.463 1151.9 267.278 1151.92 267.095C1151.94 266.912 1152 266.735 1152.09 266.574C1152.18 266.414 1152.3 266.275 1152.45 266.165C1152.6 266.055 1152.76 265.977 1152.94 265.936C1154.98 265.416 1157.12 265.385 1159.17 265.844C1161.23 266.304 1163.15 267.241 1164.77 268.581C1164.91 268.686 1165.03 268.818 1165.12 268.968C1165.2 269.119 1165.26 269.285 1165.29 269.458C1165.31 269.631 1165.3 269.806 1165.25 269.975C1165.21 270.143 1165.13 270.301 1165.02 270.439V270.439C1164.87 270.611 1164.69 270.756 1164.49 270.868V270.868Z" fill="#263238"/>
<path d="M1153.94 317.437C1157.2 317.09 1160.32 315.976 1163.06 314.187C1165.8 312.397 1168.08 309.984 1169.71 307.144C1169.75 307.062 1169.77 306.973 1169.78 306.881C1169.79 306.79 1169.77 306.697 1169.74 306.611C1169.71 306.524 1169.67 306.444 1169.6 306.376C1169.54 306.308 1169.47 306.253 1169.38 306.215C1169.31 306.172 1169.22 306.146 1169.13 306.137C1169.05 306.128 1168.96 306.138 1168.88 306.164C1168.79 306.191 1168.71 306.235 1168.65 306.293C1168.58 306.351 1168.53 306.421 1168.49 306.501V306.501C1166.95 309.113 1164.82 311.329 1162.27 312.973C1159.72 314.617 1156.82 315.644 1153.8 315.972C1153.71 315.976 1153.62 315.999 1153.54 316.04C1153.45 316.081 1153.38 316.138 1153.32 316.208C1153.26 316.279 1153.21 316.36 1153.18 316.449C1153.16 316.537 1153.15 316.63 1153.16 316.722C1153.17 316.812 1153.19 316.898 1153.24 316.978C1153.28 317.057 1153.34 317.126 1153.41 317.183C1153.48 317.239 1153.56 317.281 1153.64 317.307C1153.73 317.332 1153.82 317.34 1153.91 317.33L1153.94 317.437Z" fill="#263238"/>
<path d="M1121.06 281.269C1120.85 281.441 1120.59 281.531 1120.31 281.519C1120.14 281.489 1119.98 281.425 1119.84 281.331C1119.69 281.237 1119.57 281.114 1119.47 280.971C1119.37 280.827 1119.3 280.666 1119.27 280.496C1119.24 280.326 1119.24 280.151 1119.28 279.982V279.982C1119.66 277.904 1120.54 275.948 1121.83 274.276C1123.12 272.604 1124.8 271.264 1126.71 270.368C1126.87 270.304 1127.05 270.273 1127.22 270.277C1127.39 270.28 1127.57 270.317 1127.72 270.387C1127.88 270.457 1128.03 270.557 1128.15 270.683C1128.27 270.808 1128.36 270.956 1128.43 271.118V271.118C1128.49 271.28 1128.52 271.453 1128.52 271.627C1128.51 271.801 1128.48 271.973 1128.41 272.132C1128.34 272.291 1128.24 272.435 1128.11 272.556C1127.99 272.676 1127.84 272.771 1127.68 272.834C1126.18 273.583 1124.88 274.671 1123.88 276.012C1122.88 277.352 1122.21 278.907 1121.92 280.554C1121.84 280.726 1121.72 280.878 1121.57 281.001C1121.42 281.124 1121.25 281.215 1121.06 281.269V281.269Z" fill="#263238"/>
<path d="M1215.27 282.055C1213.81 288.916 1209.7 294.925 1203.84 298.781C1196.01 303.785 1189.54 297.459 1189.26 288.667C1189.26 280.84 1193.12 268.545 1202.09 267.223C1211.06 265.9 1216.92 273.62 1215.27 282.055Z" fill="#E4897B"/>
<path d="M1092.19 389.918C1078.79 402.67 1068.94 418.679 1063.59 436.38C1056.88 457.824 1050.58 508.325 1047.51 535.737C1046.87 541.03 1044.53 545.975 1040.86 549.837C1037.18 553.7 1032.36 556.275 1027.1 557.181L951.835 570.298L957.84 608.575L1053.19 599.39C1063.4 598.407 1073.01 594.158 1080.61 587.275C1088.21 580.392 1093.38 571.242 1095.37 561.184C1101.19 531.698 1108.98 488.954 1112.52 455.108C1118.53 397.602 1112.2 383.985 1092.19 389.918Z" fill="#2E3434"/>
<path opacity="0.1" d="M1092.19 389.918C1078.79 402.67 1068.94 418.679 1063.59 436.38C1056.88 457.824 1050.58 508.325 1047.51 535.737C1046.87 541.03 1044.53 545.975 1040.86 549.837C1037.18 553.7 1032.36 556.275 1027.1 557.181L951.835 570.298L957.84 608.575L1053.19 599.39C1063.4 598.407 1073.01 594.158 1080.61 587.275C1088.21 580.392 1093.38 571.242 1095.37 561.184C1101.19 531.698 1108.98 488.954 1112.52 455.108C1118.53 397.602 1112.2 383.985 1092.19 389.918Z" fill="black"/>
<path d="M1039.33 1240.6L1011.02 1233.63L1027.14 1172.98L1055.45 1179.95L1039.33 1240.6Z" fill="#E4897B"/>
<path d="M1011.31 1223.84L1043.47 1235.42C1044 1235.61 1044.44 1235.98 1044.73 1236.46C1045.02 1236.94 1045.13 1237.51 1045.05 1238.06L1041.79 1263.47C1041.64 1264.57 1041.06 1265.56 1040.19 1266.23C1039.31 1266.9 1038.2 1267.19 1037.11 1267.05C1036.8 1267 1036.5 1266.92 1036.22 1266.8C1025.89 1262.9 1018.56 1259.65 1005.52 1254.83C997.475 1251.89 972.922 1244.1 961.842 1239.99C950.763 1235.88 953.265 1224.52 958.268 1225.13C980.249 1228.06 997.797 1227.45 1006.41 1223.95C1007.97 1223.3 1009.72 1223.26 1011.31 1223.84V1223.84Z" fill="#2E353A"/>
<path d="M1000.87 1225.3C999.019 1224.81 997.399 1223.69 996.296 1222.12C995.963 1221.54 995.789 1220.88 995.789 1220.21C995.789 1219.54 995.963 1218.88 996.296 1218.3C996.419 1217.93 996.647 1217.61 996.951 1217.36C997.256 1217.12 997.624 1216.98 998.011 1216.94C1001.58 1216.48 1008.13 1224.8 1008.73 1225.77C1008.81 1225.87 1008.86 1226 1008.86 1226.13C1008.86 1226.26 1008.81 1226.38 1008.73 1226.48C1008.68 1226.6 1008.59 1226.71 1008.47 1226.77C1008.36 1226.83 1008.22 1226.86 1008.09 1226.84C1005.63 1226.59 1003.21 1226.08 1000.87 1225.3V1225.3ZM998.904 1218.41C998.623 1218.33 998.328 1218.33 998.047 1218.41C998.047 1218.41 997.582 1218.41 997.368 1218.98C997.164 1219.38 997.057 1219.82 997.057 1220.26C997.057 1220.71 997.164 1221.15 997.368 1221.55C999.86 1223.95 1003.16 1225.33 1006.62 1225.41C1004.52 1222.61 1001.9 1220.23 998.904 1218.41V1218.41Z" fill="#2E3434"/>
<path d="M1007.98 1226.8H1007.66C1005.48 1224.34 1002.3 1216.62 1003.84 1214.05C1004.1 1213.61 1004.5 1213.28 1004.97 1213.11C1005.45 1212.94 1005.97 1212.95 1006.45 1213.12C1006.95 1213.22 1007.42 1213.43 1007.83 1213.73C1008.25 1214.03 1008.59 1214.42 1008.84 1214.87C1010.98 1218.44 1008.84 1226.3 1008.84 1226.7C1008.81 1226.81 1008.74 1226.91 1008.65 1226.99C1008.56 1227.06 1008.46 1227.11 1008.34 1227.13C1008.26 1227.1 1008.19 1227.06 1008.13 1227.01C1008.06 1226.95 1008.02 1226.88 1007.98 1226.8ZM1006.52 1214.19H1006.23C1005.41 1213.9 1005.2 1214.37 1005.09 1214.51C1004.12 1216.12 1005.91 1221.66 1007.88 1224.77C1008.84 1221.71 1008.84 1218.43 1007.88 1215.37C1007.74 1215.09 1007.55 1214.84 1007.32 1214.64C1007.09 1214.43 1006.81 1214.28 1006.52 1214.19V1214.19Z" fill="#2E3434"/>
<path opacity="0.2" d="M1055.45 1179.95L1027.14 1172.98L1018.85 1204.29L1047.15 1211.22L1055.45 1179.95Z" fill="black"/>
<path d="M1226.75 1240.31L1197.8 1243.75L1191.54 1181.31L1220.49 1177.88L1226.75 1240.31Z" fill="#E4897B"/>
<path d="M1194.62 1234.49L1228.75 1234.02C1229.31 1234.03 1229.86 1234.22 1230.3 1234.57C1230.74 1234.92 1231.05 1235.41 1231.18 1235.95L1237.04 1260.97C1237.28 1262.05 1237.08 1263.17 1236.49 1264.1C1235.9 1265.03 1234.97 1265.69 1233.89 1265.94C1233.59 1265.98 1233.27 1265.98 1232.97 1265.94C1221.92 1265.94 1213.88 1265.33 1200.01 1265.51C1191.47 1265.51 1165.74 1266.83 1153.94 1267.01C1142.15 1267.19 1140.43 1255.5 1145.26 1254.4C1166.7 1249.39 1183.07 1242.64 1189.93 1236.31C1191.2 1235.12 1192.88 1234.46 1194.62 1234.49Z" fill="#2E353A"/>
<path d="M1185.4 1239.53C1183.48 1239.72 1181.56 1239.24 1179.96 1238.17C1179.44 1237.75 1179.03 1237.2 1178.78 1236.57C1178.53 1235.95 1178.44 1235.27 1178.53 1234.6C1178.51 1234.21 1178.61 1233.82 1178.8 1233.48C1179 1233.15 1179.29 1232.88 1179.64 1232.7C1182.75 1231.06 1191.9 1236.53 1192.9 1237.13C1193.02 1237.19 1193.11 1237.29 1193.17 1237.4C1193.23 1237.52 1193.24 1237.65 1193.22 1237.78C1193.21 1237.91 1193.16 1238.04 1193.07 1238.15C1192.98 1238.25 1192.86 1238.32 1192.72 1238.35C1190.33 1239.03 1187.88 1239.42 1185.4 1239.53ZM1181.14 1233.77C1180.85 1233.74 1180.54 1233.8 1180.28 1233.95C1180.11 1233.95 1179.89 1234.2 1179.86 1234.74C1179.81 1235.18 1179.87 1235.63 1180.03 1236.05C1180.19 1236.47 1180.45 1236.84 1180.79 1237.13C1183.96 1238.52 1187.53 1238.64 1190.79 1237.49C1187.85 1235.64 1184.57 1234.38 1181.14 1233.77V1233.77Z" fill="#2E3434"/>
<path d="M1192.54 1238.46H1192.22C1189.33 1236.92 1183.64 1230.81 1184.18 1227.73C1184.27 1227.24 1184.52 1226.78 1184.91 1226.46C1185.29 1226.13 1185.78 1225.95 1186.29 1225.95C1186.79 1225.88 1187.3 1225.91 1187.79 1226.05C1188.28 1226.2 1188.73 1226.44 1189.11 1226.77C1192.4 1229.38 1193.19 1237.49 1193.22 1237.81C1193.23 1237.93 1193.2 1238.05 1193.14 1238.16C1193.09 1238.27 1193 1238.36 1192.9 1238.42L1192.54 1238.46ZM1186.75 1227.13H1186.43C1185.57 1227.13 1185.5 1227.63 1185.5 1227.81C1185.15 1229.63 1188.79 1234.27 1191.72 1236.42C1191.46 1233.2 1190.21 1230.15 1188.15 1227.66C1187.77 1227.31 1187.27 1227.12 1186.75 1227.13V1227.13Z" fill="#2E3434"/>
<path opacity="0.2" d="M1220.49 1177.88L1191.54 1181.31L1194.8 1213.51L1223.74 1210.08L1220.49 1177.88Z" fill="black"/>
<path d="M1092.11 669.69C1092.11 669.69 1019.28 1025.8 1016.77 1162.54L1065.31 1184.24C1065.31 1184.24 1104.84 1029.73 1117.67 942.922C1117.67 942.922 1151.69 873.98 1160.84 817.833C1160.84 817.833 1158.95 1064.44 1184.5 1194.57L1230.03 1190.99C1230.03 1190.99 1275.96 728.375 1267.67 654.322L1092.11 669.69Z" fill="#2E3434"/>
<path opacity="0.6" d="M1092.11 669.69C1092.11 669.69 1019.28 1025.8 1016.77 1162.54L1065.31 1184.24C1065.31 1184.24 1104.84 1029.73 1117.67 942.922C1117.67 942.922 1151.69 873.98 1160.84 817.833C1160.84 817.833 1158.95 1064.44 1184.5 1194.57L1230.03 1190.99C1230.03 1190.99 1275.96 728.375 1267.67 654.322L1092.11 669.69Z" fill="white"/>
<path opacity="0.2" d="M1152.94 727.946C1152.94 727.946 1147.55 812.614 1155.23 843.708C1157.55 834.952 1159.48 826.231 1160.84 817.796L1152.94 727.946Z" fill="black"/>
<path d="M1178.71 1204.9L1241.22 1195.6L1239.29 1178.31L1174.32 1186.81L1178.71 1204.9Z" fill="#2E3434"/>
<path d="M1008.55 1175.88L1068.92 1194.46L1074.67 1178.06L1012.38 1157.65L1008.55 1175.88Z" fill="#2E3434"/>
<path d="M1092.19 389.918C1092.19 389.918 1099.91 374.658 1167.74 370.726C1235.57 366.795 1265.88 376.838 1265.88 376.838C1265.88 376.838 1259.74 520.441 1267.6 654.358C1267.6 654.358 1154.16 694.78 1092.04 669.691C1092.11 669.691 1045.58 496.245 1092.19 389.918Z" fill="#2E3434"/>
<path opacity="0.2" d="M1192.04 369.868C1184.54 369.868 1176.46 370.226 1167.74 370.726C1162.49 371.048 1157.66 371.405 1153.12 371.834C1153.12 371.834 1158.91 382.806 1167.74 382.806C1172.54 382.821 1177.28 381.647 1181.52 379.39C1185.76 377.132 1189.37 373.861 1192.04 369.868V369.868Z" fill="black"/>
<path opacity="0.3" d="M1264.13 556.466L1160.84 608.682C1160.84 608.682 1225.96 610.683 1264.88 589.561C1264.57 578.386 1264.32 567.355 1264.13 556.466Z" fill="black"/>
<path opacity="0.1" d="M1166.42 410.934L1203.12 574.229L1194.97 595.352L1166.42 410.934Z" fill="black"/>
<path d="M1166.7 415.502L973.407 444.789L1001.4 629.521L1194.69 600.234L1166.7 415.502Z" fill="#2E3434"/>
<path opacity="0.1" d="M1166.7 415.502L973.407 444.789L1001.4 629.521L1194.69 600.234L1166.7 415.502Z" fill="white"/>
<path d="M1021.04 433.4L871.497 456.55L900.043 640.952L1049.59 617.801L1021.04 433.4Z" fill="#2E3434"/>
<path opacity="0.3" d="M1021.04 433.4L871.497 456.55L900.043 640.952L1049.59 617.801L1021.04 433.4Z" fill="white"/>
<path opacity="0.3" d="M967.452 441.673L925.14 448.224L932.827 497.882L975.14 491.332L967.452 441.673Z" fill="white"/>
<path opacity="0.1" d="M1125.33 417.274L1083.02 423.824L1090.71 473.483L1133.02 466.933L1125.33 417.274Z" fill="black"/>
<path opacity="0.2" d="M1034.31 580.949L988.072 588.106L992.43 616.256L1038.66 609.099L1034.31 580.949Z" fill="white"/>
<path opacity="0.2" d="M1106.52 607.217L1101.76 600.927L1086.43 604.215C1085.62 606.825 1085.3 609.565 1085.5 612.292L1106.95 609.004L1106.52 607.217Z" fill="#2E353A"/>
<path d="M1195.22 570.405L1132.79 585.63C1128.01 582.566 1122.29 581.299 1116.67 582.056C1107.88 583.629 1085.61 601.463 1086.43 604.108C1087.25 606.753 1107.88 622.907 1111.7 621.728C1115.52 620.548 1139.58 603.536 1139.58 603.536L1199.05 598.568L1195.22 570.405Z" fill="#E4897B"/>
<path d="M1261.91 376.623C1261.91 376.623 1235.68 383.593 1239.4 432.27C1241.04 453.428 1241.86 476.016 1242.29 494.815C1242.55 507.392 1239.23 519.783 1232.71 530.541C1226.19 541.299 1216.75 549.981 1205.48 555.573L1154.23 576.517L1160.84 608.683C1160.84 608.683 1235.32 601.857 1261.52 580.913C1287.72 559.969 1296.83 515.259 1292.58 478.196C1286.65 426.731 1288.61 374.55 1261.91 376.623Z" fill="#2E3434"/>
<path opacity="0.1" d="M1261.91 376.623C1261.91 376.623 1235.68 383.593 1239.4 432.27C1241.04 453.428 1241.86 476.016 1242.29 494.815C1242.55 507.392 1239.23 519.783 1232.71 530.541C1226.19 541.299 1216.75 549.981 1205.48 555.573L1154.23 576.517L1160.84 608.683C1160.84 608.683 1235.32 601.857 1261.52 580.913C1287.72 559.969 1296.83 515.259 1292.58 478.196C1286.65 426.731 1288.61 374.55 1261.91 376.623Z" fill="black"/>
<path d="M1159.09 568.367L1163.45 613.114L1151.41 614.257L1145.01 572.37L1159.09 568.367Z" fill="#2E3434"/>
<path opacity="0.6" d="M1159.09 568.367L1163.45 613.114L1151.41 614.257L1145.01 572.37L1159.09 568.367Z" fill="white"/>
<path opacity="0.4" d="M1222.08 445.477L1180.54 449.191L1181.13 455.813L1222.68 452.098L1222.08 445.477Z" fill="white"/>
<path d="M1167.74 370.726L1181.18 388.596L1209.52 369.903V368.188C1209.59 366.688 1209.3 365.194 1208.68 363.827C1208.06 362.461 1207.12 361.261 1205.95 360.325C1204.59 359.491 1203.05 359 1201.46 358.894C1199.88 358.788 1198.29 359.071 1196.83 359.718L1167.74 370.726Z" fill="#2E3434"/>
<path d="M1148.83 372.156L1152.16 366.652C1156.34 361.72 1159.66 364.257 1159.66 364.257L1167.74 370.726L1155.95 388.596L1148.83 372.156Z" fill="#2E3434"/>
<path opacity="0.6" d="M1167.74 370.726L1181.18 388.596L1209.52 369.903V368.188C1209.59 366.688 1209.3 365.194 1208.68 363.827C1208.06 362.461 1207.12 361.261 1205.95 360.325C1204.59 359.491 1203.05 359 1201.46 358.894C1199.88 358.788 1198.29 359.071 1196.83 359.718L1167.74 370.726Z" fill="white"/>
<path opacity="0.6" d="M1148.83 372.156L1152.16 366.652C1156.34 361.72 1159.66 364.257 1159.66 364.257L1167.74 370.726L1155.95 388.596L1148.83 372.156Z" fill="white"/>
<path d="M1214.56 281.34C1216.45 269.117 1207.98 267.437 1202.41 268.903C1196.83 270.368 1190.79 279.231 1190.79 279.231C1185.36 270.439 1182.29 248.173 1182.29 248.173C1175.38 251.989 1167.68 254.15 1159.8 254.485C1151.92 254.82 1144.07 253.32 1136.86 250.103C1134.08 257.612 1128.89 263.985 1122.1 268.224C1122.1 268.224 1112.02 263.613 1117.63 240.454C1123.99 214.113 1163.56 188.631 1203.41 214.9C1243.26 241.168 1219.13 289.953 1219.13 289.953C1219.13 289.953 1210.09 305.929 1202.09 311.933C1202.76 307.192 1202.76 302.379 1202.09 297.638C1205.33 296.141 1208.17 293.874 1210.34 291.034C1212.52 288.194 1213.96 284.866 1214.56 281.34V281.34Z" fill="#2E353A"/>
<path d="M1132.14 243.562C1134.45 246.378 1137.12 248.878 1140.08 250.996C1143.09 253.146 1146.36 254.923 1149.8 256.286C1153.24 257.64 1156.84 258.518 1160.52 258.895C1164.28 259.252 1168.08 259.144 1171.81 258.573C1168.1 259.442 1164.3 259.85 1160.49 259.788C1156.62 259.718 1152.78 259.104 1149.08 257.966C1145.32 256.857 1141.71 255.259 1138.36 253.212C1134.96 251.174 1131.84 248.685 1129.11 245.814L1132.14 243.562Z" fill="#2E353A"/>
<path d="M1591.72 445.529C1562.77 419.654 1528.96 454.75 1528.96 454.75C1528.96 454.75 1495.12 419.654 1466.2 445.529C1424.96 482.449 1484.93 548.568 1528.96 561.791C1573 548.568 1632.97 482.556 1591.72 445.529Z" fill="#2E3434"/>
<path opacity="0.6" d="M1591.72 445.529C1562.77 419.654 1528.96 454.75 1528.96 454.75C1528.96 454.75 1495.12 419.654 1466.2 445.529C1424.96 482.449 1484.93 548.568 1528.96 561.791C1573 548.568 1632.97 482.556 1591.72 445.529Z" fill="white"/>
<path d="M1007.37 101.354C978.425 75.4778 944.615 110.574 944.615 110.574C944.615 110.574 910.77 75.4778 881.856 101.354C840.612 138.237 900.584 204.356 944.615 217.616C988.647 204.356 1048.62 138.237 1007.37 101.354Z" fill="#2E3434"/>
<path opacity="0.6" d="M1007.37 101.354C978.425 75.4778 944.615 110.574 944.615 110.574C944.615 110.574 910.77 75.4778 881.856 101.354C840.612 138.237 900.584 204.356 944.615 217.616C988.647 204.356 1048.62 138.237 1007.37 101.354Z" fill="white"/>
<path d="M1347.51 208.788C1335.68 198.066 1321.85 212.576 1321.85 212.576C1321.85 212.576 1308.05 198.28 1296.23 208.788C1279.36 223.87 1303.87 250.889 1321.85 256.322C1339.86 250.889 1364.35 223.87 1347.51 208.788Z" fill="#2E3434"/>
<path opacity="0.6" d="M1347.51 208.788C1335.68 198.066 1321.85 212.576 1321.85 212.576C1321.85 212.576 1308.05 198.28 1296.23 208.788C1279.36 223.87 1303.87 250.889 1321.85 256.322C1339.86 250.889 1364.35 223.87 1347.51 208.788Z" fill="white"/>
<path d="M266.843 492.778C255.013 482.056 241.217 496.566 241.217 496.566C241.217 496.566 227.386 482.27 215.556 492.778C198.722 507.86 223.204 534.879 241.217 540.276C259.195 534.879 283.712 507.86 266.843 492.778Z" fill="#2E3434"/>
<path opacity="0.6" d="M266.843 492.778C255.013 482.056 241.217 496.566 241.217 496.566C241.217 496.566 227.386 482.27 215.556 492.778C198.722 507.86 223.204 534.879 241.217 540.276C259.195 534.879 283.712 507.86 266.843 492.778Z" fill="white"/>
<path d="M1098.21 527.763L1092.76 529.225C1092.25 527.661 1091.82 526.07 1091.48 524.461C1090.82 521.975 1091.43 516.668 1095.46 517.918C1096.71 518.287 1097.55 516.435 1096.3 516.066C1095.4 515.807 1094.45 515.776 1093.54 515.975C1092.63 516.174 1091.78 516.596 1091.07 517.205C1090.36 517.813 1089.81 518.588 1089.47 519.461C1089.14 520.333 1089.02 521.275 1089.14 522.203C1089.33 524.76 1089.88 527.278 1090.77 529.683L1087.63 530.525C1086.39 530.858 1086.55 532.849 1087.84 532.541L1091.29 531.616C1092.1 534.654 1092.92 537.692 1093.73 540.73C1094.08 542.007 1095.98 541.238 1095.65 539.995C1094.85 537.027 1094.06 534.092 1093.27 531.123L1098.38 529.754C1099.67 529.481 1099.5 527.455 1098.21 527.763Z" fill="white"/>
<path d="M1106.11 521.058C1105.97 521.061 1105.82 521.099 1105.7 521.169C1096.58 522.909 1101.92 537.167 1110.43 534.7C1112.19 533.947 1113.61 532.567 1114.41 530.828C1115.21 529.089 1115.33 527.116 1114.76 525.29C1114.55 524.394 1114.14 523.555 1113.57 522.835C1112.99 522.115 1112.26 521.531 1111.44 521.126C1110.61 520.721 1109.7 520.505 1108.78 520.493C1107.86 520.481 1106.95 520.674 1106.11 521.058V521.058ZM1110.59 532.4C1104.59 535.821 1099.29 524.328 1106.11 523.277C1106.33 523.279 1106.55 523.221 1106.74 523.111V523.111C1112.7 520.514 1115.18 529.765 1110.59 532.4Z" fill="white"/>
<path d="M1128.42 518.966C1123.45 511.048 1111.95 521.714 1117.89 528.558C1119.28 529.839 1121.09 530.571 1122.98 530.615C1124.87 530.66 1126.72 530.015 1128.17 528.802C1128.91 528.259 1129.53 527.557 1129.97 526.747C1130.41 525.938 1130.66 525.04 1130.71 524.12C1130.76 523.2 1130.61 522.28 1130.26 521.427C1129.91 520.574 1129.38 519.809 1128.7 519.187L1128.42 518.966ZM1119.07 526.761C1115.84 522.004 1123.2 514.554 1126.8 520.25C1126.85 520.353 1126.92 520.444 1127.01 520.516C1127.1 520.588 1127.21 520.639 1127.32 520.666C1132.32 525.801 1122.4 531.716 1119.07 526.761V526.761Z" fill="white"/>
<path d="M1145.95 524.479C1143.24 516.697 1140.56 508.905 1137.85 501.156C1137.51 499.879 1135.54 500.666 1135.94 501.891L1139.35 511.708C1138.21 511.649 1137.08 511.852 1136.03 512.3C1134.98 512.748 1134.05 513.43 1133.31 514.293C1132.56 515.157 1132.03 516.179 1131.74 517.281C1131.45 518.384 1131.42 519.538 1131.65 520.654C1132.8 526.079 1139.51 526.244 1143.77 524.473L1143.97 525.232C1144.48 526.429 1146.39 525.695 1145.95 524.479ZM1133.91 520.971C1133.63 520.124 1133.55 519.219 1133.69 518.335C1133.83 517.451 1134.18 516.614 1134.72 515.898C1135.26 515.182 1135.96 514.607 1136.77 514.225C1137.58 513.842 1138.47 513.662 1139.37 513.701C1139.57 513.701 1139.77 513.647 1139.95 513.544C1141.01 516.517 1142.03 519.5 1143.09 522.508C1140.2 523.727 1135.31 524.373 1133.84 520.99L1133.91 520.971Z" fill="white"/>
</svg>
