<svg width="220" height="50" viewBox="0 0 220 50" fill="none" xmlns="http://www.w3.org/2000/svg">
<path d="M11.5 2.00015C9.574 2.00015 8 3.55015 8 5.46915V43.9061C8 46.1681 9.855 48.0001 12.125 48.0001H37.875C40.145 48.0001 42 46.1681 42 43.9061V14.5001C42 14.2341 41.906 13.9691 41.719 13.7811L30.219 2.28115C30.0256 2.09653 29.7673 1.99557 29.5 2.00015H11.5ZM30 4.90615L39.094 14.0001H31.656C31.4384 14.0007 31.2228 13.9582 31.0217 13.8752C30.8205 13.7921 30.6377 13.6702 30.4839 13.5163C30.33 13.3624 30.208 13.1796 30.125 12.9785C30.0419 12.7773 29.9995 12.5618 30 12.3441V4.90615ZM17 24.0001H33V38.0001H17V24.0001ZM19 26.0001V28.0001H24V26.0001H19ZM26 26.0001V28.0001H31V26.0001H26ZM19 30.0001V32.0001H24V30.0001H19ZM26 30.0001V32.0001H31V30.0001H26ZM19 34.0001V36.0001H24V34.0001H19ZM26 34.0001V36.0001H31V34.0001H26Z" fill="white"/>
<path d="M65.775 33.325C68.675 33.325 71 32.125 72.65 30.3V24.05H64.75V26.625H69.725V29.225C68.975 29.925 67.475 30.725 65.775 30.725C62.475 30.725 60.025 28.175 60.025 24.675C60.025 21.175 62.475 18.65 65.775 18.65C67.65 18.65 69.225 19.625 70.1 20.875L72.5 19.525C71.15 17.6 69.025 16.05 65.775 16.05C60.95 16.05 57.025 19.45 57.025 24.675C57.025 29.9 60.95 33.325 65.775 33.325ZM81.0699 33.3C84.9449 33.3 87.2949 30.425 87.2949 26.95C87.2949 23.5 84.9449 20.625 81.0699 20.625C77.2449 20.625 74.8699 23.5 74.8699 26.95C74.8699 30.425 77.2449 33.3 81.0699 33.3ZM81.0699 30.975C78.8449 30.975 77.5949 29.1 77.5949 26.95C77.5949 24.825 78.8449 22.95 81.0699 22.95C83.3199 22.95 84.5699 24.825 84.5699 26.95C84.5699 29.1 83.3199 30.975 81.0699 30.975ZM95.401 33.3C99.276 33.3 101.626 30.425 101.626 26.95C101.626 23.5 99.276 20.625 95.401 20.625C91.576 20.625 89.201 23.5 89.201 26.95C89.201 30.425 91.576 33.3 95.401 33.3ZM95.401 30.975C93.176 30.975 91.926 29.1 91.926 26.95C91.926 24.825 93.176 22.95 95.401 22.95C97.651 22.95 98.901 24.825 98.901 26.95C98.901 29.1 97.651 30.975 95.401 30.975ZM109.182 37.9C112.157 37.9 115.382 36.725 115.382 32.375V20.925H112.757V22.6C111.782 21.325 110.407 20.625 108.882 20.625C105.782 20.625 103.532 22.925 103.532 26.825C103.532 30.8 105.807 33.025 108.882 33.025C110.457 33.025 111.832 32.225 112.757 31.025V32.475C112.757 34.95 110.907 35.75 109.182 35.75C107.582 35.75 106.332 35.325 105.357 34.2L104.132 36.1C105.607 37.45 107.132 37.9 109.182 37.9ZM109.657 30.7C107.582 30.7 106.257 29.15 106.257 26.825C106.257 24.5 107.582 22.95 109.657 22.95C110.882 22.95 112.182 23.675 112.757 24.575V29.075C112.182 29.975 110.882 30.7 109.657 30.7ZM121.409 33V16.325H118.784V33H121.409ZM130.389 33.3C132.314 33.3 134.089 32.7 135.289 31.55L134.089 29.825C133.239 30.675 131.839 31.15 130.664 31.15C128.389 31.15 127.014 29.65 126.814 27.825H136.139V27.2C136.139 23.4 133.814 20.625 130.189 20.625C126.614 20.625 124.064 23.45 124.064 26.95C124.064 30.775 126.764 33.3 130.389 33.3ZM133.589 25.975H126.789C126.914 24.5 127.939 22.775 130.189 22.775C132.564 22.775 133.539 24.55 133.589 25.975ZM150.926 33.3C155.426 33.3 157.376 30.925 157.376 28.15C157.376 21.925 147.676 23.85 147.676 20.75C147.676 19.5 148.776 18.675 150.501 18.675C152.251 18.675 154.026 19.275 155.326 20.575L157.001 18.4C155.451 16.9 153.351 16.075 150.751 16.075C147.101 16.075 144.676 18.2 144.676 20.95C144.676 27.1 154.401 24.925 154.401 28.425C154.401 29.525 153.451 30.7 151.051 30.7C148.726 30.7 146.926 29.625 145.776 28.4L144.151 30.65C145.626 32.225 147.851 33.3 150.926 33.3ZM170.795 33V24.45C170.795 21.975 169.495 20.625 166.895 20.625C164.995 20.625 163.42 21.625 162.62 22.575V16.325H159.995V33H162.62V24.575C163.245 23.75 164.395 22.95 165.72 22.95C167.195 22.95 168.17 23.525 168.17 25.4V33H170.795ZM179.779 33.3C181.704 33.3 183.479 32.7 184.679 31.55L183.479 29.825C182.629 30.675 181.229 31.15 180.054 31.15C177.779 31.15 176.404 29.65 176.204 27.825H185.529V27.2C185.529 23.4 183.204 20.625 179.579 20.625C176.004 20.625 173.454 23.45 173.454 26.95C173.454 30.775 176.154 33.3 179.779 33.3ZM182.979 25.975H176.179C176.304 24.5 177.329 22.775 179.579 22.775C181.954 22.775 182.929 24.55 182.979 25.975ZM193.695 33.3C195.62 33.3 197.395 32.7 198.595 31.55L197.395 29.825C196.545 30.675 195.145 31.15 193.97 31.15C191.695 31.15 190.32 29.65 190.12 27.825H199.445V27.2C199.445 23.4 197.12 20.625 193.495 20.625C189.92 20.625 187.37 23.45 187.37 26.95C187.37 30.775 190.07 33.3 193.695 33.3ZM196.895 25.975H190.095C190.22 24.5 191.245 22.775 193.495 22.775C195.87 22.775 196.845 24.55 196.895 25.975ZM205.661 33.3C206.886 33.3 207.661 32.975 208.136 32.525L207.511 30.55C207.311 30.775 206.836 30.975 206.336 30.975C205.586 30.975 205.186 30.375 205.186 29.55V23.225H207.636V20.925H205.186V17.625H202.561V20.925H200.561V23.225H202.561V30.2C202.561 32.2 203.636 33.3 205.661 33.3ZM214.144 33.3C217.394 33.3 219.169 31.675 219.169 29.55C219.169 24.75 211.869 26.35 211.869 24.2C211.869 23.35 212.744 22.725 214.119 22.725C215.619 22.725 216.969 23.35 217.694 24.175L218.794 22.325C217.694 21.35 216.144 20.625 214.094 20.625C211.044 20.625 209.344 22.325 209.344 24.3C209.344 28.925 216.644 27.225 216.644 29.6C216.644 30.55 215.844 31.225 214.269 31.225C212.694 31.225 211.019 30.4 210.169 29.525L208.969 31.425C210.219 32.65 212.094 33.3 214.144 33.3Z" fill="white"/>
</svg>
